<svg xmlns="http://www.w3.org/2000/svg" width="194" height="154" viewBox="-12 -12 194 154" stroke-linejoin="round" stroke-linecap="round">
<g transform="translate(20,58) rotate(-4 65 35)"><rect x="4" y="4" width="122" height="62" rx="8" fill="#86c06f" stroke="#16120f" stroke-width="4"/><rect x="14" y="14" width="102" height="42" rx="4" fill="none" stroke="#4f8a43" stroke-width="3"/><circle cx="65.0" cy="35.0" r="15" fill="#a6d98e" stroke="#16120f" stroke-width="3"/><g transform="translate(65.0,35.0) scale(0.2)" fill="none" stroke="#2f6b3a" stroke-width="10"><path d="M 18 -22 C 18 -42 -22 -42 -22 -18 C -22 4 18 -2 18 22 C 18 46 -24 44 -24 22"/><line x1="-2" y1="-52" x2="-2" y2="52"/></g><circle cx="26" cy="26" r="5" fill="#a6d98e" stroke="#16120f" stroke-width="2"/><circle cx="104" cy="44" r="5" fill="#a6d98e" stroke="#16120f" stroke-width="2"/></g><g transform="translate(26,48) rotate(3 65 35)"><rect x="4" y="4" width="122" height="62" rx="8" fill="#86c06f" stroke="#16120f" stroke-width="4"/><rect x="14" y="14" width="102" height="42" rx="4" fill="none" stroke="#4f8a43" stroke-width="3"/><circle cx="65.0" cy="35.0" r="15" fill="#a6d98e" stroke="#16120f" stroke-width="3"/><g transform="translate(65.0,35.0) scale(0.2)" fill="none" stroke="#2f6b3a" stroke-width="10"><path d="M 18 -22 C 18 -42 -22 -42 -22 -18 C -22 4 18 -2 18 22 C 18 46 -24 44 -24 22"/><line x1="-2" y1="-52" x2="-2" y2="52"/></g><circle cx="26" cy="26" r="5" fill="#a6d98e" stroke="#16120f" stroke-width="2"/><circle cx="104" cy="44" r="5" fill="#a6d98e" stroke="#16120f" stroke-width="2"/></g><g transform="translate(18,38) rotate(-2 65 35)"><rect x="4" y="4" width="122" height="62" rx="8" fill="#86c06f" stroke="#16120f" stroke-width="4"/><rect x="14" y="14" width="102" height="42" rx="4" fill="none" stroke="#4f8a43" stroke-width="3"/><circle cx="65.0" cy="35.0" r="15" fill="#a6d98e" stroke="#16120f" stroke-width="3"/><g transform="translate(65.0,35.0) scale(0.2)" fill="none" stroke="#2f6b3a" stroke-width="10"><path d="M 18 -22 C 18 -42 -22 -42 -22 -18 C -22 4 18 -2 18 22 C 18 46 -24 44 -24 22"/><line x1="-2" y1="-52" x2="-2" y2="52"/></g><circle cx="26" cy="26" r="5" fill="#a6d98e" stroke="#16120f" stroke-width="2"/><circle cx="104" cy="44" r="5" fill="#a6d98e" stroke="#16120f" stroke-width="2"/></g><g transform="translate(24,30) rotate(5 65 35)"><rect x="4" y="4" width="122" height="62" rx="8" fill="#86c06f" stroke="#16120f" stroke-width="4"/><rect x="14" y="14" width="102" height="42" rx="4" fill="none" stroke="#4f8a43" stroke-width="3"/><circle cx="65.0" cy="35.0" r="15" fill="#a6d98e" stroke="#16120f" stroke-width="3"/><g transform="translate(65.0,35.0) scale(0.2)" fill="none" stroke="#2f6b3a" stroke-width="10"><path d="M 18 -22 C 18 -42 -22 -42 -22 -18 C -22 4 18 -2 18 22 C 18 46 -24 44 -24 22"/><line x1="-2" y1="-52" x2="-2" y2="52"/></g><circle cx="26" cy="26" r="5" fill="#a6d98e" stroke="#16120f" stroke-width="2"/><circle cx="104" cy="44" r="5" fill="#a6d98e" stroke="#16120f" stroke-width="2"/></g>
</svg>
