<svg xmlns="http://www.w3.org/2000/svg" width="324" height="324" viewBox="-12 -12 324 324" stroke-linejoin="round" stroke-linecap="round">
<rect x="15" y="15" width="270" height="270" rx="14" fill="#6f7882" stroke="#16120f" stroke-width="5"/><circle cx="150" cy="150" r="112" fill="#8d97a2" stroke="#16120f" stroke-width="5"/><circle cx="150" cy="150" r="92" fill="#aab4be" stroke="#16120f" stroke-width="4"/><circle cx="253.0" cy="150.0" r="5" fill="#d3d9df" stroke="#16120f" stroke-width="3"/><circle cx="239.2006165897972" cy="201.5" r="5" fill="#d3d9df" stroke="#16120f" stroke-width="3"/><circle cx="201.5" cy="239.20061658979716" r="5" fill="#d3d9df" stroke="#16120f" stroke-width="3"/><circle cx="150.0" cy="253.0" r="5" fill="#d3d9df" stroke="#16120f" stroke-width="3"/><circle cx="98.50000000000003" cy="239.2006165897972" r="5" fill="#d3d9df" stroke="#16120f" stroke-width="3"/><circle cx="60.79938341020281" cy="201.5" r="5" fill="#d3d9df" stroke="#16120f" stroke-width="3"/><circle cx="47.0" cy="150.0" r="5" fill="#d3d9df" stroke="#16120f" stroke-width="3"/><circle cx="60.79938341020281" cy="98.50000000000003" r="5" fill="#d3d9df" stroke="#16120f" stroke-width="3"/><circle cx="98.49999999999996" cy="60.79938341020285" r="5" fill="#d3d9df" stroke="#16120f" stroke-width="3"/><circle cx="149.99999999999997" cy="47.0" r="5" fill="#d3d9df" stroke="#16120f" stroke-width="3"/><circle cx="201.5" cy="60.79938341020282" r="5" fill="#d3d9df" stroke="#16120f" stroke-width="3"/><circle cx="239.20061658979716" cy="98.49999999999996" r="5" fill="#d3d9df" stroke="#16120f" stroke-width="3"/><circle cx="150" cy="150" r="34" fill="#8d97a2" stroke="#16120f" stroke-width="4"/><line x1="150" y1="150" x2="180.0" y2="150.0" stroke="#16120f" stroke-width="5"/><line x1="150" y1="150" x2="165.0" y2="175.98076211353316" stroke="#16120f" stroke-width="5"/><line x1="150" y1="150" x2="135.0" y2="175.98076211353316" stroke="#16120f" stroke-width="5"/><line x1="150" y1="150" x2="120.0" y2="150.0" stroke="#16120f" stroke-width="5"/><line x1="150" y1="150" x2="135.0" y2="124.01923788646684" stroke="#16120f" stroke-width="5"/><line x1="150" y1="150" x2="165.0" y2="124.01923788646684" stroke="#16120f" stroke-width="5"/><circle cx="150" cy="150" r="9" fill="#d3d9df" stroke="#16120f" stroke-width="3"/><rect x="228" y="138" width="34" height="24" rx="6" fill="#c3ccd5" stroke="#16120f" stroke-width="4"/>
</svg>
