<svg xmlns="http://www.w3.org/2000/svg" width="800" height="320" viewBox="0 0 800 320"><defs><marker id="arrow" markerWidth="5" markerHeight="5" refX="4" refY="2.5" orient="auto"><path d="M0 0L5 2.5 0 5Z" fill="#efbd5b"/></marker></defs><rect x="4" y="4" width="792" height="312" rx="18" fill="#23383c" stroke="#526864" stroke-width="2"/><rect x="250" y="37" width="265" height="250" rx="8" fill="#ece6ce"/><rect x="267" y="55" width="231" height="212" rx="4" fill="#88b2b0"/><path d="M268 215H498V266H268Z" fill="#66868c"/><g stroke="#152c35" stroke-width="5" stroke-linejoin="round"><path d="M350 122 L305 240 393 215 440 240 414 125" fill="#27877a"/><circle cx="382" cy="105" r="23" fill="#e5c494"/><path d="M361 101 Q382 74 404 101" fill="#263a3f"/><path d="M360 126 L404 126 415 189 350 189Z" fill="#edc25c"/><path d="M363 191 L359 238 M393 191 L401 238" stroke="#27877a" stroke-width="19"/><path d="M358 140 L328 165 M405 139 L433 165" stroke="#edc25c" stroke-width="16"/><circle cx="381" cy="153" r="12" fill="#ee9445"/><path d="M374 153H388 M381 146V160" stroke-width="3"/></g><path d="M204 127 L479 74 479 229 204 185Z" fill="#ffe09b" opacity=".35"/><g stroke="#122831" stroke-width="5"><rect x="83" y="135" width="98" height="40" rx="10" fill="#52656b"/><path d="M179 133 L205 121 205 191 179 178Z" fill="#9daaa7"/><path d="M96 145H162" stroke="#edc25c" stroke-width="4"/></g><path d="M251 178 L495 188 495 263 251 214Z" fill="#33244e" opacity=".95"/><circle cx="453" cy="229" r="17" fill="#6b778a"/><path d="M443 250H465" stroke="#a0a9a3" stroke-width="8"/><ellipse cx="243" cy="220" rx="26" ry="10" fill="#b4aa76"/><circle cx="243" cy="191" r="28" fill="#93b8c7" stroke="#162c35" stroke-width="5"/><path d="M160 268Q206 253 230 230" stroke="#efbd5b" stroke-width="6" fill="none" marker-end="url(#arrow)"/><circle cx="381" cy="147" r="48" fill="none" stroke="#efbd5b" stroke-width="4"/><circle cx="452" cy="229" r="26" fill="none" stroke="#e69a92" stroke-width="4"/><path d="M591 185Q548 195 490 221" fill="none" stroke="#efbd5b" stroke-width="6" marker-end="url(#arrow)"/><polygon points="230,230 205,235 222,250" fill="#efbd5b"/><polygon points="490,221 513,200 522,220" fill="#efbd5b"/></svg>