<svg xmlns="http://www.w3.org/2000/svg" width="640" height="640" viewBox="0 0 640 640" stroke-linejoin="round" stroke-linecap="round">
<defs><linearGradient id="sky" x1="0" y1="0" x2="0" y2="1"><stop offset="0" stop-color="#0b1030"/><stop offset="1" stop-color="#2b3270"/></linearGradient></defs><rect width="640" height="640" fill="url(#sky)"/><circle cx="246" cy="160" r="1.2" fill="#fff" opacity="1"/><circle cx="410" cy="250" r="1.2" fill="#fff" opacity="0.6"/><circle cx="73" cy="15" r="1.6" fill="#fff" opacity="1"/><circle cx="301" cy="35" r="1.2" fill="#fff" opacity="1"/><circle cx="554" cy="189" r="1.6" fill="#fff" opacity="0.6"/><circle cx="113" cy="139" r="1.2" fill="#fff" opacity="0.6"/><circle cx="271" cy="144" r="1.2" fill="#fff" opacity="0.6"/><circle cx="322" cy="153" r="2.2" fill="#fff" opacity="1"/><circle cx="386" cy="49" r="2.2" fill="#fff" opacity="0.9"/><circle cx="402" cy="264" r="1.2" fill="#fff" opacity="0.6"/><circle cx="258" cy="247" r="1.6" fill="#fff" opacity="0.6"/><circle cx="565" cy="158" r="1.2" fill="#fff" opacity="0.9"/><circle cx="591" cy="164" r="2.2" fill="#fff" opacity="0.6"/><circle cx="428" cy="221" r="2.2" fill="#fff" opacity="0.9"/><circle cx="446" cy="236" r="1.2" fill="#fff" opacity="0.6"/><circle cx="317" cy="137" r="1.2" fill="#fff" opacity="0.6"/><circle cx="52" cy="241" r="2.2" fill="#fff" opacity="0.9"/><circle cx="536" cy="278" r="2.2" fill="#fff" opacity="0.9"/><circle cx="356" cy="79" r="2.2" fill="#fff" opacity="0.6"/><circle cx="73" cy="216" r="1.2" fill="#fff" opacity="1"/><circle cx="456" cy="146" r="1.2" fill="#fff" opacity="0.9"/><circle cx="451" cy="306" r="1.6" fill="#fff" opacity="1"/><circle cx="576" cy="106" r="1.6" fill="#fff" opacity="0.6"/><circle cx="68" cy="122" r="1.6" fill="#fff" opacity="1"/><circle cx="635" cy="126" r="1.2" fill="#fff" opacity="0.9"/><circle cx="186" cy="153" r="1.6" fill="#fff" opacity="0.6"/><circle cx="48" cy="187" r="2.2" fill="#fff" opacity="0.6"/><circle cx="297" cy="172" r="1.2" fill="#fff" opacity="0.9"/><circle cx="300" cy="169" r="1.2" fill="#fff" opacity="1"/><circle cx="425" cy="322" r="2.2" fill="#fff" opacity="0.6"/><circle cx="305" cy="321" r="1.2" fill="#fff" opacity="0.9"/><circle cx="304" cy="74" r="1.6" fill="#fff" opacity="0.9"/><circle cx="618" cy="86" r="1.6" fill="#fff" opacity="1"/><circle cx="14" cy="191" r="1.2" fill="#fff" opacity="0.9"/><circle cx="178" cy="191" r="1.6" fill="#fff" opacity="0.9"/><circle cx="590" cy="54" r="1.6" fill="#fff" opacity="0.6"/><circle cx="439" cy="111" r="1.2" fill="#fff" opacity="0.6"/><circle cx="68" cy="33" r="2.2" fill="#fff" opacity="0.6"/><circle cx="614" cy="81" r="2.2" fill="#fff" opacity="0.6"/><circle cx="564" cy="256" r="2.2" fill="#fff" opacity="0.6"/><circle cx="334" cy="23" r="1.2" fill="#fff" opacity="1"/><circle cx="304" cy="214" r="2.2" fill="#fff" opacity="0.6"/><circle cx="494" cy="108" r="1.2" fill="#fff" opacity="0.9"/><circle cx="425" cy="256" r="1.2" fill="#fff" opacity="0.6"/><circle cx="436" cy="232" r="1.2" fill="#fff" opacity="1"/><circle cx="443" cy="115" r="1.6" fill="#fff" opacity="0.6"/><circle cx="37" cy="23" r="1.6" fill="#fff" opacity="0.9"/><circle cx="253" cy="274" r="1.2" fill="#fff" opacity="0.6"/><circle cx="432" cy="138" r="1.2" fill="#fff" opacity="0.9"/><circle cx="57" cy="166" r="2.2" fill="#fff" opacity="0.6"/><circle cx="588" cy="211" r="2.2" fill="#fff" opacity="1"/><circle cx="46" cy="258" r="1.6" fill="#fff" opacity="0.6"/><circle cx="445" cy="112" r="2.2" fill="#fff" opacity="0.6"/><circle cx="349" cy="156" r="2.2" fill="#fff" opacity="0.9"/><circle cx="327" cy="220" r="2.2" fill="#fff" opacity="0.6"/><circle cx="279" cy="178" r="1.6" fill="#fff" opacity="0.9"/><circle cx="81" cy="148" r="2.2" fill="#fff" opacity="1"/><circle cx="200" cy="27" r="1.6" fill="#fff" opacity="1"/><circle cx="135" cy="142" r="2.2" fill="#fff" opacity="0.6"/><circle cx="176" cy="330" r="1.6" fill="#fff" opacity="1"/><circle cx="110" cy="100" r="39.6" fill="#f1efdc" stroke="#16120f" stroke-width="4"/><circle cx="98" cy="92" r="8" fill="#d9d6c0" stroke="#16120f" stroke-width="0"/><circle cx="124" cy="110" r="6" fill="#d9d6c0" stroke="#16120f" stroke-width="0"/><circle cx="116" cy="84" r="4" fill="#d9d6c0" stroke="#16120f" stroke-width="0"/><rect x="-10" y="170" width="170" height="310" rx="0" fill="#323a70" stroke="#16120f" stroke-width="4"/><rect x="2" y="186" width="11" height="15" fill="#ffd36b" stroke="#16120f" stroke-width="2"/><rect x="24" y="186" width="11" height="15" fill="#ffd36b" stroke="#16120f" stroke-width="2"/><rect x="46" y="186" width="11" height="15" fill="#ffd36b" stroke="#16120f" stroke-width="2"/><rect x="68" y="186" width="11" height="15" fill="#1c2145" stroke="#16120f" stroke-width="2"/><rect x="90" y="186" width="11" height="15" fill="#ffd36b" stroke="#16120f" stroke-width="2"/><rect x="112" y="186" width="11" height="15" fill="#ffd36b" stroke="#16120f" stroke-width="2"/><rect x="134" y="186" width="11" height="15" fill="#1c2145" stroke="#16120f" stroke-width="2"/><rect x="2" y="210" width="11" height="15" fill="#ffd36b" stroke="#16120f" stroke-width="2"/><rect x="24" y="210" width="11" height="15" fill="#ffd36b" stroke="#16120f" stroke-width="2"/><rect x="46" y="210" width="11" height="15" fill="#1c2145" stroke="#16120f" stroke-width="2"/><rect x="68" y="210" width="11" height="15" fill="#ffd36b" stroke="#16120f" stroke-width="2"/><rect x="90" y="210" width="11" height="15" fill="#ffd36b" stroke="#16120f" stroke-width="2"/><rect x="112" y="210" width="11" height="15" fill="#ffd36b" stroke="#16120f" stroke-width="2"/><rect x="134" y="210" width="11" height="15" fill="#1c2145" stroke="#16120f" stroke-width="2"/><rect x="2" y="234" width="11" height="15" fill="#ffd36b" stroke="#16120f" stroke-width="2"/><rect x="24" y="234" width="11" height="15" fill="#1c2145" stroke="#16120f" stroke-width="2"/><rect x="46" y="234" width="11" height="15" fill="#1c2145" stroke="#16120f" stroke-width="2"/><rect x="68" y="234" width="11" height="15" fill="#1c2145" stroke="#16120f" stroke-width="2"/><rect x="90" y="234" width="11" height="15" fill="#1c2145" stroke="#16120f" stroke-width="2"/><rect x="112" y="234" width="11" height="15" fill="#1c2145" stroke="#16120f" stroke-width="2"/><rect x="134" y="234" width="11" height="15" fill="#ffd36b" stroke="#16120f" stroke-width="2"/><rect x="2" y="258" width="11" height="15" fill="#ffd36b" stroke="#16120f" stroke-width="2"/><rect x="24" y="258" width="11" height="15" fill="#1c2145" stroke="#16120f" stroke-width="2"/><rect x="46" y="258" width="11" height="15" fill="#ffd36b" stroke="#16120f" stroke-width="2"/><rect x="68" y="258" width="11" height="15" fill="#1c2145" stroke="#16120f" stroke-width="2"/><rect x="90" y="258" width="11" height="15" fill="#ffd36b" stroke="#16120f" stroke-width="2"/><rect x="112" y="258" width="11" height="15" fill="#1c2145" stroke="#16120f" stroke-width="2"/><rect x="134" y="258" width="11" height="15" fill="#ffd36b" stroke="#16120f" stroke-width="2"/><rect x="2" y="282" width="11" height="15" fill="#ffd36b" stroke="#16120f" stroke-width="2"/><rect x="24" y="282" width="11" height="15" fill="#1c2145" stroke="#16120f" stroke-width="2"/><rect x="46" y="282" width="11" height="15" fill="#1c2145" stroke="#16120f" stroke-width="2"/><rect x="68" y="282" width="11" height="15" fill="#ffd36b" stroke="#16120f" stroke-width="2"/><rect x="90" y="282" width="11" height="15" fill="#ffd36b" stroke="#16120f" stroke-width="2"/><rect x="112" y="282" width="11" height="15" fill="#ffd36b" stroke="#16120f" stroke-width="2"/><rect x="134" y="282" width="11" height="15" fill="#1c2145" stroke="#16120f" stroke-width="2"/><rect x="2" y="306" width="11" height="15" fill="#ffd36b" stroke="#16120f" stroke-width="2"/><rect x="24" y="306" width="11" height="15" fill="#ffd36b" stroke="#16120f" stroke-width="2"/><rect x="46" y="306" width="11" height="15" fill="#1c2145" stroke="#16120f" stroke-width="2"/><rect x="68" y="306" width="11" height="15" fill="#ffd36b" stroke="#16120f" stroke-width="2"/><rect x="90" y="306" width="11" height="15" fill="#1c2145" stroke="#16120f" stroke-width="2"/><rect x="112" y="306" width="11" height="15" fill="#1c2145" stroke="#16120f" stroke-width="2"/><rect x="134" y="306" width="11" height="15" fill="#ffd36b" stroke="#16120f" stroke-width="2"/><rect x="2" y="330" width="11" height="15" fill="#ffd36b" stroke="#16120f" stroke-width="2"/><rect x="24" y="330" width="11" height="15" fill="#1c2145" stroke="#16120f" stroke-width="2"/><rect x="46" y="330" width="11" height="15" fill="#1c2145" stroke="#16120f" stroke-width="2"/><rect x="68" y="330" width="11" height="15" fill="#ffd36b" stroke="#16120f" stroke-width="2"/><rect x="90" y="330" width="11" height="15" fill="#1c2145" stroke="#16120f" stroke-width="2"/><rect x="112" y="330" width="11" height="15" fill="#ffd36b" stroke="#16120f" stroke-width="2"/><rect x="134" y="330" width="11" height="15" fill="#1c2145" stroke="#16120f" stroke-width="2"/><rect x="2" y="354" width="11" height="15" fill="#ffd36b" stroke="#16120f" stroke-width="2"/><rect x="24" y="354" width="11" height="15" fill="#1c2145" stroke="#16120f" stroke-width="2"/><rect x="46" y="354" width="11" height="15" fill="#1c2145" stroke="#16120f" stroke-width="2"/><rect x="68" y="354" width="11" height="15" fill="#1c2145" stroke="#16120f" stroke-width="2"/><rect x="90" y="354" width="11" height="15" fill="#1c2145" stroke="#16120f" stroke-width="2"/><rect x="112" y="354" width="11" height="15" fill="#ffd36b" stroke="#16120f" stroke-width="2"/><rect x="134" y="354" width="11" height="15" fill="#ffd36b" stroke="#16120f" stroke-width="2"/><rect x="2" y="378" width="11" height="15" fill="#1c2145" stroke="#16120f" stroke-width="2"/><rect x="24" y="378" width="11" height="15" fill="#ffd36b" stroke="#16120f" stroke-width="2"/><rect x="46" y="378" width="11" height="15" fill="#ffd36b" stroke="#16120f" stroke-width="2"/><rect x="68" y="378" width="11" height="15" fill="#1c2145" stroke="#16120f" stroke-width="2"/><rect x="90" y="378" width="11" height="15" fill="#ffd36b" stroke="#16120f" stroke-width="2"/><rect x="112" y="378" width="11" height="15" fill="#1c2145" stroke="#16120f" stroke-width="2"/><rect x="134" y="378" width="11" height="15" fill="#ffd36b" stroke="#16120f" stroke-width="2"/><rect x="2" y="402" width="11" height="15" fill="#1c2145" stroke="#16120f" stroke-width="2"/><rect x="24" y="402" width="11" height="15" fill="#ffd36b" stroke="#16120f" stroke-width="2"/><rect x="46" y="402" width="11" height="15" fill="#ffd36b" stroke="#16120f" stroke-width="2"/><rect x="68" y="402" width="11" height="15" fill="#1c2145" stroke="#16120f" stroke-width="2"/><rect x="90" y="402" width="11" height="15" fill="#ffd36b" stroke="#16120f" stroke-width="2"/><rect x="112" y="402" width="11" height="15" fill="#ffd36b" stroke="#16120f" stroke-width="2"/><rect x="134" y="402" width="11" height="15" fill="#1c2145" stroke="#16120f" stroke-width="2"/><rect x="2" y="426" width="11" height="15" fill="#1c2145" stroke="#16120f" stroke-width="2"/><rect x="24" y="426" width="11" height="15" fill="#ffd36b" stroke="#16120f" stroke-width="2"/><rect x="46" y="426" width="11" height="15" fill="#ffd36b" stroke="#16120f" stroke-width="2"/><rect x="68" y="426" width="11" height="15" fill="#ffd36b" stroke="#16120f" stroke-width="2"/><rect x="90" y="426" width="11" height="15" fill="#ffd36b" stroke="#16120f" stroke-width="2"/><rect x="112" y="426" width="11" height="15" fill="#ffd36b" stroke="#16120f" stroke-width="2"/><rect x="134" y="426" width="11" height="15" fill="#ffd36b" stroke="#16120f" stroke-width="2"/><rect x="2" y="450" width="11" height="15" fill="#1c2145" stroke="#16120f" stroke-width="2"/><rect x="24" y="450" width="11" height="15" fill="#ffd36b" stroke="#16120f" stroke-width="2"/><rect x="46" y="450" width="11" height="15" fill="#ffd36b" stroke="#16120f" stroke-width="2"/><rect x="68" y="450" width="11" height="15" fill="#1c2145" stroke="#16120f" stroke-width="2"/><rect x="90" y="450" width="11" height="15" fill="#ffd36b" stroke="#16120f" stroke-width="2"/><rect x="112" y="450" width="11" height="15" fill="#1c2145" stroke="#16120f" stroke-width="2"/><rect x="134" y="450" width="11" height="15" fill="#1c2145" stroke="#16120f" stroke-width="2"/><rect x="490" y="200" width="160" height="280" rx="0" fill="#2d3466" stroke="#16120f" stroke-width="4"/><rect x="502" y="216" width="11" height="15" fill="#1c2145" stroke="#16120f" stroke-width="2"/><rect x="524" y="216" width="11" height="15" fill="#1c2145" stroke="#16120f" stroke-width="2"/><rect x="546" y="216" width="11" height="15" fill="#ffd36b" stroke="#16120f" stroke-width="2"/><rect x="568" y="216" width="11" height="15" fill="#ffd36b" stroke="#16120f" stroke-width="2"/><rect x="590" y="216" width="11" height="15" fill="#1c2145" stroke="#16120f" stroke-width="2"/><rect x="612" y="216" width="11" height="15" fill="#ffd36b" stroke="#16120f" stroke-width="2"/><rect x="502" y="240" width="11" height="15" fill="#ffd36b" stroke="#16120f" stroke-width="2"/><rect x="524" y="240" width="11" height="15" fill="#1c2145" stroke="#16120f" stroke-width="2"/><rect x="546" y="240" width="11" height="15" fill="#1c2145" stroke="#16120f" stroke-width="2"/><rect x="568" y="240" width="11" height="15" fill="#ffd36b" stroke="#16120f" stroke-width="2"/><rect x="590" y="240" width="11" height="15" fill="#ffd36b" stroke="#16120f" stroke-width="2"/><rect x="612" y="240" width="11" height="15" fill="#1c2145" stroke="#16120f" stroke-width="2"/><rect x="502" y="264" width="11" height="15" fill="#1c2145" stroke="#16120f" stroke-width="2"/><rect x="524" y="264" width="11" height="15" fill="#1c2145" stroke="#16120f" stroke-width="2"/><rect x="546" y="264" width="11" height="15" fill="#ffd36b" stroke="#16120f" stroke-width="2"/><rect x="568" y="264" width="11" height="15" fill="#1c2145" stroke="#16120f" stroke-width="2"/><rect x="590" y="264" width="11" height="15" fill="#ffd36b" stroke="#16120f" stroke-width="2"/><rect x="612" y="264" width="11" height="15" fill="#1c2145" stroke="#16120f" stroke-width="2"/><rect x="502" y="288" width="11" height="15" fill="#1c2145" stroke="#16120f" stroke-width="2"/><rect x="524" y="288" width="11" height="15" fill="#1c2145" stroke="#16120f" stroke-width="2"/><rect x="546" y="288" width="11" height="15" fill="#ffd36b" stroke="#16120f" stroke-width="2"/><rect x="568" y="288" width="11" height="15" fill="#1c2145" stroke="#16120f" stroke-width="2"/><rect x="590" y="288" width="11" height="15" fill="#1c2145" stroke="#16120f" stroke-width="2"/><rect x="612" y="288" width="11" height="15" fill="#ffd36b" stroke="#16120f" stroke-width="2"/><rect x="502" y="312" width="11" height="15" fill="#ffd36b" stroke="#16120f" stroke-width="2"/><rect x="524" y="312" width="11" height="15" fill="#ffd36b" stroke="#16120f" stroke-width="2"/><rect x="546" y="312" width="11" height="15" fill="#1c2145" stroke="#16120f" stroke-width="2"/><rect x="568" y="312" width="11" height="15" fill="#1c2145" stroke="#16120f" stroke-width="2"/><rect x="590" y="312" width="11" height="15" fill="#ffd36b" stroke="#16120f" stroke-width="2"/><rect x="612" y="312" width="11" height="15" fill="#1c2145" stroke="#16120f" stroke-width="2"/><rect x="502" y="336" width="11" height="15" fill="#ffd36b" stroke="#16120f" stroke-width="2"/><rect x="524" y="336" width="11" height="15" fill="#ffd36b" stroke="#16120f" stroke-width="2"/><rect x="546" y="336" width="11" height="15" fill="#1c2145" stroke="#16120f" stroke-width="2"/><rect x="568" y="336" width="11" height="15" fill="#ffd36b" stroke="#16120f" stroke-width="2"/><rect x="590" y="336" width="11" height="15" fill="#ffd36b" stroke="#16120f" stroke-width="2"/><rect x="612" y="336" width="11" height="15" fill="#1c2145" stroke="#16120f" stroke-width="2"/><rect x="502" y="360" width="11" height="15" fill="#1c2145" stroke="#16120f" stroke-width="2"/><rect x="524" y="360" width="11" height="15" fill="#1c2145" stroke="#16120f" stroke-width="2"/><rect x="546" y="360" width="11" height="15" fill="#ffd36b" stroke="#16120f" stroke-width="2"/><rect x="568" y="360" width="11" height="15" fill="#1c2145" stroke="#16120f" stroke-width="2"/><rect x="590" y="360" width="11" height="15" fill="#1c2145" stroke="#16120f" stroke-width="2"/><rect x="612" y="360" width="11" height="15" fill="#ffd36b" stroke="#16120f" stroke-width="2"/><rect x="502" y="384" width="11" height="15" fill="#ffd36b" stroke="#16120f" stroke-width="2"/><rect x="524" y="384" width="11" height="15" fill="#1c2145" stroke="#16120f" stroke-width="2"/><rect x="546" y="384" width="11" height="15" fill="#ffd36b" stroke="#16120f" stroke-width="2"/><rect x="568" y="384" width="11" height="15" fill="#1c2145" stroke="#16120f" stroke-width="2"/><rect x="590" y="384" width="11" height="15" fill="#1c2145" stroke="#16120f" stroke-width="2"/><rect x="612" y="384" width="11" height="15" fill="#1c2145" stroke="#16120f" stroke-width="2"/><rect x="502" y="408" width="11" height="15" fill="#1c2145" stroke="#16120f" stroke-width="2"/><rect x="524" y="408" width="11" height="15" fill="#1c2145" stroke="#16120f" stroke-width="2"/><rect x="546" y="408" width="11" height="15" fill="#ffd36b" stroke="#16120f" stroke-width="2"/><rect x="568" y="408" width="11" height="15" fill="#ffd36b" stroke="#16120f" stroke-width="2"/><rect x="590" y="408" width="11" height="15" fill="#ffd36b" stroke="#16120f" stroke-width="2"/><rect x="612" y="408" width="11" height="15" fill="#ffd36b" stroke="#16120f" stroke-width="2"/><rect x="502" y="432" width="11" height="15" fill="#1c2145" stroke="#16120f" stroke-width="2"/><rect x="524" y="432" width="11" height="15" fill="#ffd36b" stroke="#16120f" stroke-width="2"/><rect x="546" y="432" width="11" height="15" fill="#ffd36b" stroke="#16120f" stroke-width="2"/><rect x="568" y="432" width="11" height="15" fill="#ffd36b" stroke="#16120f" stroke-width="2"/><rect x="590" y="432" width="11" height="15" fill="#1c2145" stroke="#16120f" stroke-width="2"/><rect x="612" y="432" width="11" height="15" fill="#ffd36b" stroke="#16120f" stroke-width="2"/><rect x="502" y="456" width="11" height="15" fill="#1c2145" stroke="#16120f" stroke-width="2"/><rect x="524" y="456" width="11" height="15" fill="#ffd36b" stroke="#16120f" stroke-width="2"/><rect x="546" y="456" width="11" height="15" fill="#ffd36b" stroke="#16120f" stroke-width="2"/><rect x="568" y="456" width="11" height="15" fill="#1c2145" stroke="#16120f" stroke-width="2"/><rect x="590" y="456" width="11" height="15" fill="#ffd36b" stroke="#16120f" stroke-width="2"/><rect x="612" y="456" width="11" height="15" fill="#1c2145" stroke="#16120f" stroke-width="2"/><rect x="-5" y="478" width="650" height="60" rx="0" fill="#3a3b4a" stroke="#16120f" stroke-width="4"/><rect x="-5" y="538" width="650" height="200" rx="0" fill="#23242c" stroke="#16120f" stroke-width="4"/><rect x="10" y="590" width="70" height="10" rx="2" fill="#b9b59a" stroke="#16120f" stroke-width="2"/><rect x="130" y="590" width="70" height="10" rx="2" fill="#b9b59a" stroke="#16120f" stroke-width="2"/><rect x="250" y="590" width="70" height="10" rx="2" fill="#b9b59a" stroke="#16120f" stroke-width="2"/><rect x="370" y="590" width="70" height="10" rx="2" fill="#b9b59a" stroke="#16120f" stroke-width="2"/><rect x="490" y="590" width="70" height="10" rx="2" fill="#b9b59a" stroke="#16120f" stroke-width="2"/><rect x="610" y="590" width="70" height="10" rx="2" fill="#b9b59a" stroke="#16120f" stroke-width="2"/><rect x="120" y="456" width="400" height="24" rx="0" fill="#4a4b5a" stroke="#16120f" stroke-width="4"/><rect x="140" y="436" width="360" height="22" rx="0" fill="#4a4b5a" stroke="#16120f" stroke-width="4"/><rect x="160" y="256" width="320" height="180" rx="0" fill="#8f8aa8" stroke="#16120f" stroke-width="5"/><polygon points="138,256 320,150 502,256" fill="#8f8aa8" stroke="#16120f" stroke-width="5"/><circle cx="320" cy="218" r="24" fill="#ffd36b" stroke="#16120f" stroke-width="4"/><rect x="200" y="266" width="240" height="34" rx="3" fill="#2c3a5c" stroke="#16120f" stroke-width="4"/><text x="320" y="290" text-anchor="middle" font-family="DejaVu Sans, Arial Black, sans-serif" font-weight="900" font-size="20" fill="#f3ead6">FIRST CITY BANK</text><rect x="176" y="306" width="24" height="130" rx="4" fill="#b9b4cf" stroke="#16120f" stroke-width="4"/><rect x="226" y="306" width="24" height="130" rx="4" fill="#b9b4cf" stroke="#16120f" stroke-width="4"/><rect x="276" y="306" width="24" height="130" rx="4" fill="#b9b4cf" stroke="#16120f" stroke-width="4"/><rect x="326" y="306" width="24" height="130" rx="4" fill="#b9b4cf" stroke="#16120f" stroke-width="4"/><rect x="376" y="306" width="24" height="130" rx="4" fill="#b9b4cf" stroke="#16120f" stroke-width="4"/><rect x="426" y="306" width="24" height="130" rx="4" fill="#b9b4cf" stroke="#16120f" stroke-width="4"/><rect x="292" y="364" width="56" height="72" rx="3" fill="#ffcf5a" stroke="#16120f" stroke-width="4"/><defs><radialGradient id="g110"><stop offset="0" stop-color="#ffe9a0" stop-opacity=".9"/><stop offset="1" stop-color="#ffe9a0" stop-opacity="0"/></radialGradient></defs><circle cx="124" cy="334" r="110" fill="url(#g110)"/><rect x="106" y="334" width="8" height="150" rx="2" fill="#4a4f5a" stroke="#16120f" stroke-width="4"/><path d="M 110 334 Q 110 314 132 316" fill="none" stroke="#16120f" stroke-width="10"/><path d="M 110 334 Q 110 314 132 316" fill="none" stroke="#4a4f5a" stroke-width="5"/><ellipse cx="134" cy="320" rx="13" ry="7" fill="#fff6c0" stroke="#16120f" stroke-width="3"/><defs><radialGradient id="g560"><stop offset="0" stop-color="#ffe9a0" stop-opacity=".9"/><stop offset="1" stop-color="#ffe9a0" stop-opacity="0"/></radialGradient></defs><circle cx="574" cy="334" r="110" fill="url(#g560)"/><rect x="556" y="334" width="8" height="150" rx="2" fill="#4a4f5a" stroke="#16120f" stroke-width="4"/><path d="M 560 334 Q 560 314 582 316" fill="none" stroke="#16120f" stroke-width="10"/><path d="M 560 334 Q 560 314 582 316" fill="none" stroke="#4a4f5a" stroke-width="5"/><ellipse cx="584" cy="320" rx="13" ry="7" fill="#fff6c0" stroke="#16120f" stroke-width="3"/>
</svg>
