<svg xmlns="http://www.w3.org/2000/svg" width="640" height="640" viewBox="0 0 640 640" stroke-linejoin="round" stroke-linecap="round">
<defs><linearGradient id="sky" x1="0" y1="0" x2="0" y2="1"><stop offset="0" stop-color="#0b1030"/><stop offset="1" stop-color="#2b3270"/></linearGradient></defs><rect width="640" height="640" fill="url(#sky)"/><circle cx="62" cy="51" r="1.2" fill="#fff" opacity="0.9"/><circle cx="178" cy="162" r="1.6" fill="#fff" opacity="1"/><circle cx="222" cy="315" r="1.2" fill="#fff" opacity="1"/><circle cx="167" cy="225" r="2.2" fill="#fff" opacity="0.9"/><circle cx="526" cy="195" r="2.2" fill="#fff" opacity="0.9"/><circle cx="519" cy="142" r="1.2" fill="#fff" opacity="0.6"/><circle cx="377" cy="243" r="1.6" fill="#fff" opacity="0.9"/><circle cx="438" cy="274" r="1.2" fill="#fff" opacity="1"/><circle cx="186" cy="125" r="1.2" fill="#fff" opacity="0.6"/><circle cx="185" cy="171" r="1.2" fill="#fff" opacity="0.6"/><circle cx="527" cy="266" r="1.6" fill="#fff" opacity="1"/><circle cx="578" cy="98" r="1.6" fill="#fff" opacity="0.9"/><circle cx="542" cy="191" r="2.2" fill="#fff" opacity="0.9"/><circle cx="375" cy="233" r="1.2" fill="#fff" opacity="0.9"/><circle cx="477" cy="276" r="1.2" fill="#fff" opacity="0.9"/><circle cx="290" cy="260" r="2.2" fill="#fff" opacity="1"/><circle cx="367" cy="237" r="1.6" fill="#fff" opacity="0.9"/><circle cx="586" cy="290" r="2.2" fill="#fff" opacity="0.9"/><circle cx="503" cy="118" r="1.6" fill="#fff" opacity="1"/><circle cx="175" cy="320" r="1.6" fill="#fff" opacity="0.9"/><circle cx="321" cy="160" r="2.2" fill="#fff" opacity="1"/><circle cx="580" cy="270" r="2.2" fill="#fff" opacity="1"/><circle cx="635" cy="306" r="1.6" fill="#fff" opacity="0.9"/><circle cx="217" cy="255" r="2.2" fill="#fff" opacity="0.9"/><circle cx="82" cy="179" r="2.2" fill="#fff" opacity="0.6"/><circle cx="200" cy="59" r="1.2" fill="#fff" opacity="1"/><circle cx="55" cy="144" r="2.2" fill="#fff" opacity="0.6"/><circle cx="113" cy="272" r="1.2" fill="#fff" opacity="0.9"/><circle cx="255" cy="112" r="1.2" fill="#fff" opacity="0.9"/><circle cx="37" cy="34" r="1.6" fill="#fff" opacity="0.9"/><circle cx="181" cy="132" r="2.2" fill="#fff" opacity="0.6"/><circle cx="89" cy="63" r="1.2" fill="#fff" opacity="0.6"/><circle cx="46" cy="15" r="1.6" fill="#fff" opacity="0.9"/><circle cx="135" cy="85" r="2.2" fill="#fff" opacity="0.6"/><circle cx="540" cy="5" r="1.6" fill="#fff" opacity="1"/><circle cx="49" cy="131" r="1.2" fill="#fff" opacity="0.6"/><circle cx="9" cy="181" r="2.2" fill="#fff" opacity="1"/><circle cx="120" cy="151" r="1.6" fill="#fff" opacity="0.9"/><circle cx="36" cy="162" r="1.6" fill="#fff" opacity="1"/><circle cx="624" cy="28" r="1.6" fill="#fff" opacity="0.9"/><circle cx="162" cy="247" r="1.2" fill="#fff" opacity="0.6"/><circle cx="328" cy="57" r="1.2" fill="#fff" opacity="0.9"/><circle cx="135" cy="270" r="2.2" fill="#fff" opacity="0.9"/><circle cx="503" cy="268" r="1.6" fill="#fff" opacity="0.6"/><circle cx="354" cy="137" r="1.6" fill="#fff" opacity="1"/><circle cx="434" cy="14" r="2.2" fill="#fff" opacity="1"/><circle cx="148" cy="34" r="1.6" fill="#fff" opacity="0.6"/><circle cx="139" cy="87" r="1.2" fill="#fff" opacity="0.6"/><circle cx="469" cy="330" r="1.2" fill="#fff" opacity="1"/><circle cx="37" cy="131" r="1.2" fill="#fff" opacity="1"/><circle cx="460" cy="42" r="1.6" fill="#fff" opacity="0.6"/><circle cx="610" cy="121" r="2.2" fill="#fff" opacity="1"/><circle cx="373" cy="136" r="2.2" fill="#fff" opacity="0.9"/><circle cx="290" cy="274" r="1.2" fill="#fff" opacity="0.6"/><circle cx="41" cy="201" r="1.6" fill="#fff" opacity="0.6"/><circle cx="118" cy="267" r="2.2" fill="#fff" opacity="0.6"/><circle cx="251" cy="57" r="1.2" fill="#fff" opacity="0.6"/><circle cx="191" cy="123" r="1.2" fill="#fff" opacity="0.6"/><circle cx="30" cy="271" r="2.2" fill="#fff" opacity="0.9"/><circle cx="469" cy="163" r="2.2" fill="#fff" opacity="1"/><circle cx="120" cy="100" r="39.6" fill="#f1efdc" stroke="#16120f" stroke-width="4"/><circle cx="108" cy="92" r="8" fill="#d9d6c0" stroke="#16120f" stroke-width="0"/><circle cx="134" cy="110" r="6" fill="#d9d6c0" stroke="#16120f" stroke-width="0"/><circle cx="126" cy="84" r="4" fill="#d9d6c0" stroke="#16120f" stroke-width="0"/><rect x="-10" y="223" width="104" height="197" rx="0" fill="#3a3f78" stroke="#16120f" stroke-width="4"/><rect x="2" y="239" width="11" height="15" fill="#1c2145" stroke="#16120f" stroke-width="2"/><rect x="24" y="239" width="11" height="15" fill="#1c2145" stroke="#16120f" stroke-width="2"/><rect x="46" y="239" width="11" height="15" fill="#1c2145" stroke="#16120f" stroke-width="2"/><rect x="68" y="239" width="11" height="15" fill="#ffd36b" stroke="#16120f" stroke-width="2"/><rect x="2" y="263" width="11" height="15" fill="#ffd36b" stroke="#16120f" stroke-width="2"/><rect x="24" y="263" width="11" height="15" fill="#1c2145" stroke="#16120f" stroke-width="2"/><rect x="46" y="263" width="11" height="15" fill="#ffd36b" stroke="#16120f" stroke-width="2"/><rect x="68" y="263" width="11" height="15" fill="#ffd36b" stroke="#16120f" stroke-width="2"/><rect x="2" y="287" width="11" height="15" fill="#ffd36b" stroke="#16120f" stroke-width="2"/><rect x="24" y="287" width="11" height="15" fill="#ffd36b" stroke="#16120f" stroke-width="2"/><rect x="46" y="287" width="11" height="15" fill="#ffd36b" stroke="#16120f" stroke-width="2"/><rect x="68" y="287" width="11" height="15" fill="#1c2145" stroke="#16120f" stroke-width="2"/><rect x="2" y="311" width="11" height="15" fill="#ffd36b" stroke="#16120f" stroke-width="2"/><rect x="24" y="311" width="11" height="15" fill="#ffd36b" stroke="#16120f" stroke-width="2"/><rect x="46" y="311" width="11" height="15" fill="#1c2145" stroke="#16120f" stroke-width="2"/><rect x="68" y="311" width="11" height="15" fill="#1c2145" stroke="#16120f" stroke-width="2"/><rect x="2" y="335" width="11" height="15" fill="#ffd36b" stroke="#16120f" stroke-width="2"/><rect x="24" y="335" width="11" height="15" fill="#1c2145" stroke="#16120f" stroke-width="2"/><rect x="46" y="335" width="11" height="15" fill="#ffd36b" stroke="#16120f" stroke-width="2"/><rect x="68" y="335" width="11" height="15" fill="#ffd36b" stroke="#16120f" stroke-width="2"/><rect x="2" y="359" width="11" height="15" fill="#1c2145" stroke="#16120f" stroke-width="2"/><rect x="24" y="359" width="11" height="15" fill="#ffd36b" stroke="#16120f" stroke-width="2"/><rect x="46" y="359" width="11" height="15" fill="#ffd36b" stroke="#16120f" stroke-width="2"/><rect x="68" y="359" width="11" height="15" fill="#1c2145" stroke="#16120f" stroke-width="2"/><rect x="2" y="383" width="11" height="15" fill="#1c2145" stroke="#16120f" stroke-width="2"/><rect x="24" y="383" width="11" height="15" fill="#ffd36b" stroke="#16120f" stroke-width="2"/><rect x="46" y="383" width="11" height="15" fill="#ffd36b" stroke="#16120f" stroke-width="2"/><rect x="68" y="383" width="11" height="15" fill="#ffd36b" stroke="#16120f" stroke-width="2"/><rect x="90" y="191" width="111" height="229" rx="0" fill="#323a70" stroke="#16120f" stroke-width="4"/><rect x="102" y="207" width="11" height="15" fill="#1c2145" stroke="#16120f" stroke-width="2"/><rect x="124" y="207" width="11" height="15" fill="#1c2145" stroke="#16120f" stroke-width="2"/><rect x="146" y="207" width="11" height="15" fill="#ffd36b" stroke="#16120f" stroke-width="2"/><rect x="168" y="207" width="11" height="15" fill="#ffd36b" stroke="#16120f" stroke-width="2"/><rect x="102" y="231" width="11" height="15" fill="#ffd36b" stroke="#16120f" stroke-width="2"/><rect x="124" y="231" width="11" height="15" fill="#1c2145" stroke="#16120f" stroke-width="2"/><rect x="146" y="231" width="11" height="15" fill="#ffd36b" stroke="#16120f" stroke-width="2"/><rect x="168" y="231" width="11" height="15" fill="#ffd36b" stroke="#16120f" stroke-width="2"/><rect x="102" y="255" width="11" height="15" fill="#ffd36b" stroke="#16120f" stroke-width="2"/><rect x="124" y="255" width="11" height="15" fill="#ffd36b" stroke="#16120f" stroke-width="2"/><rect x="146" y="255" width="11" height="15" fill="#1c2145" stroke="#16120f" stroke-width="2"/><rect x="168" y="255" width="11" height="15" fill="#ffd36b" stroke="#16120f" stroke-width="2"/><rect x="102" y="279" width="11" height="15" fill="#ffd36b" stroke="#16120f" stroke-width="2"/><rect x="124" y="279" width="11" height="15" fill="#1c2145" stroke="#16120f" stroke-width="2"/><rect x="146" y="279" width="11" height="15" fill="#ffd36b" stroke="#16120f" stroke-width="2"/><rect x="168" y="279" width="11" height="15" fill="#ffd36b" stroke="#16120f" stroke-width="2"/><rect x="102" y="303" width="11" height="15" fill="#1c2145" stroke="#16120f" stroke-width="2"/><rect x="124" y="303" width="11" height="15" fill="#ffd36b" stroke="#16120f" stroke-width="2"/><rect x="146" y="303" width="11" height="15" fill="#ffd36b" stroke="#16120f" stroke-width="2"/><rect x="168" y="303" width="11" height="15" fill="#ffd36b" stroke="#16120f" stroke-width="2"/><rect x="102" y="327" width="11" height="15" fill="#ffd36b" stroke="#16120f" stroke-width="2"/><rect x="124" y="327" width="11" height="15" fill="#1c2145" stroke="#16120f" stroke-width="2"/><rect x="146" y="327" width="11" height="15" fill="#ffd36b" stroke="#16120f" stroke-width="2"/><rect x="168" y="327" width="11" height="15" fill="#ffd36b" stroke="#16120f" stroke-width="2"/><rect x="102" y="351" width="11" height="15" fill="#1c2145" stroke="#16120f" stroke-width="2"/><rect x="124" y="351" width="11" height="15" fill="#ffd36b" stroke="#16120f" stroke-width="2"/><rect x="146" y="351" width="11" height="15" fill="#1c2145" stroke="#16120f" stroke-width="2"/><rect x="168" y="351" width="11" height="15" fill="#ffd36b" stroke="#16120f" stroke-width="2"/><rect x="102" y="375" width="11" height="15" fill="#ffd36b" stroke="#16120f" stroke-width="2"/><rect x="124" y="375" width="11" height="15" fill="#ffd36b" stroke="#16120f" stroke-width="2"/><rect x="146" y="375" width="11" height="15" fill="#1c2145" stroke="#16120f" stroke-width="2"/><rect x="168" y="375" width="11" height="15" fill="#1c2145" stroke="#16120f" stroke-width="2"/><rect x="102" y="399" width="11" height="15" fill="#1c2145" stroke="#16120f" stroke-width="2"/><rect x="124" y="399" width="11" height="15" fill="#ffd36b" stroke="#16120f" stroke-width="2"/><rect x="146" y="399" width="11" height="15" fill="#ffd36b" stroke="#16120f" stroke-width="2"/><rect x="168" y="399" width="11" height="15" fill="#1c2145" stroke="#16120f" stroke-width="2"/><rect x="197" y="221" width="105" height="199" rx="0" fill="#323a70" stroke="#16120f" stroke-width="4"/><rect x="209" y="237" width="11" height="15" fill="#ffd36b" stroke="#16120f" stroke-width="2"/><rect x="231" y="237" width="11" height="15" fill="#ffd36b" stroke="#16120f" stroke-width="2"/><rect x="253" y="237" width="11" height="15" fill="#ffd36b" stroke="#16120f" stroke-width="2"/><rect x="275" y="237" width="11" height="15" fill="#1c2145" stroke="#16120f" stroke-width="2"/><rect x="209" y="261" width="11" height="15" fill="#1c2145" stroke="#16120f" stroke-width="2"/><rect x="231" y="261" width="11" height="15" fill="#1c2145" stroke="#16120f" stroke-width="2"/><rect x="253" y="261" width="11" height="15" fill="#1c2145" stroke="#16120f" stroke-width="2"/><rect x="275" y="261" width="11" height="15" fill="#ffd36b" stroke="#16120f" stroke-width="2"/><rect x="209" y="285" width="11" height="15" fill="#ffd36b" stroke="#16120f" stroke-width="2"/><rect x="231" y="285" width="11" height="15" fill="#1c2145" stroke="#16120f" stroke-width="2"/><rect x="253" y="285" width="11" height="15" fill="#ffd36b" stroke="#16120f" stroke-width="2"/><rect x="275" y="285" width="11" height="15" fill="#ffd36b" stroke="#16120f" stroke-width="2"/><rect x="209" y="309" width="11" height="15" fill="#ffd36b" stroke="#16120f" stroke-width="2"/><rect x="231" y="309" width="11" height="15" fill="#ffd36b" stroke="#16120f" stroke-width="2"/><rect x="253" y="309" width="11" height="15" fill="#1c2145" stroke="#16120f" stroke-width="2"/><rect x="275" y="309" width="11" height="15" fill="#1c2145" stroke="#16120f" stroke-width="2"/><rect x="209" y="333" width="11" height="15" fill="#1c2145" stroke="#16120f" stroke-width="2"/><rect x="231" y="333" width="11" height="15" fill="#ffd36b" stroke="#16120f" stroke-width="2"/><rect x="253" y="333" width="11" height="15" fill="#ffd36b" stroke="#16120f" stroke-width="2"/><rect x="275" y="333" width="11" height="15" fill="#ffd36b" stroke="#16120f" stroke-width="2"/><rect x="209" y="357" width="11" height="15" fill="#1c2145" stroke="#16120f" stroke-width="2"/><rect x="231" y="357" width="11" height="15" fill="#1c2145" stroke="#16120f" stroke-width="2"/><rect x="253" y="357" width="11" height="15" fill="#ffd36b" stroke="#16120f" stroke-width="2"/><rect x="275" y="357" width="11" height="15" fill="#ffd36b" stroke="#16120f" stroke-width="2"/><rect x="209" y="381" width="11" height="15" fill="#ffd36b" stroke="#16120f" stroke-width="2"/><rect x="231" y="381" width="11" height="15" fill="#ffd36b" stroke="#16120f" stroke-width="2"/><rect x="253" y="381" width="11" height="15" fill="#1c2145" stroke="#16120f" stroke-width="2"/><rect x="275" y="381" width="11" height="15" fill="#1c2145" stroke="#16120f" stroke-width="2"/><rect x="209" y="405" width="11" height="15" fill="#ffd36b" stroke="#16120f" stroke-width="2"/><rect x="231" y="405" width="11" height="15" fill="#ffd36b" stroke="#16120f" stroke-width="2"/><rect x="253" y="405" width="11" height="15" fill="#1c2145" stroke="#16120f" stroke-width="2"/><rect x="275" y="405" width="11" height="15" fill="#ffd36b" stroke="#16120f" stroke-width="2"/><rect x="298" y="191" width="90" height="229" rx="0" fill="#3a3f78" stroke="#16120f" stroke-width="4"/><rect x="310" y="207" width="11" height="15" fill="#ffd36b" stroke="#16120f" stroke-width="2"/><rect x="332" y="207" width="11" height="15" fill="#1c2145" stroke="#16120f" stroke-width="2"/><rect x="354" y="207" width="11" height="15" fill="#ffd36b" stroke="#16120f" stroke-width="2"/><rect x="310" y="231" width="11" height="15" fill="#1c2145" stroke="#16120f" stroke-width="2"/><rect x="332" y="231" width="11" height="15" fill="#1c2145" stroke="#16120f" stroke-width="2"/><rect x="354" y="231" width="11" height="15" fill="#ffd36b" stroke="#16120f" stroke-width="2"/><rect x="310" y="255" width="11" height="15" fill="#1c2145" stroke="#16120f" stroke-width="2"/><rect x="332" y="255" width="11" height="15" fill="#1c2145" stroke="#16120f" stroke-width="2"/><rect x="354" y="255" width="11" height="15" fill="#ffd36b" stroke="#16120f" stroke-width="2"/><rect x="310" y="279" width="11" height="15" fill="#1c2145" stroke="#16120f" stroke-width="2"/><rect x="332" y="279" width="11" height="15" fill="#ffd36b" stroke="#16120f" stroke-width="2"/><rect x="354" y="279" width="11" height="15" fill="#ffd36b" stroke="#16120f" stroke-width="2"/><rect x="310" y="303" width="11" height="15" fill="#ffd36b" stroke="#16120f" stroke-width="2"/><rect x="332" y="303" width="11" height="15" fill="#ffd36b" stroke="#16120f" stroke-width="2"/><rect x="354" y="303" width="11" height="15" fill="#1c2145" stroke="#16120f" stroke-width="2"/><rect x="310" y="327" width="11" height="15" fill="#ffd36b" stroke="#16120f" stroke-width="2"/><rect x="332" y="327" width="11" height="15" fill="#1c2145" stroke="#16120f" stroke-width="2"/><rect x="354" y="327" width="11" height="15" fill="#ffd36b" stroke="#16120f" stroke-width="2"/><rect x="310" y="351" width="11" height="15" fill="#ffd36b" stroke="#16120f" stroke-width="2"/><rect x="332" y="351" width="11" height="15" fill="#1c2145" stroke="#16120f" stroke-width="2"/><rect x="354" y="351" width="11" height="15" fill="#1c2145" stroke="#16120f" stroke-width="2"/><rect x="310" y="375" width="11" height="15" fill="#ffd36b" stroke="#16120f" stroke-width="2"/><rect x="332" y="375" width="11" height="15" fill="#1c2145" stroke="#16120f" stroke-width="2"/><rect x="354" y="375" width="11" height="15" fill="#1c2145" stroke="#16120f" stroke-width="2"/><rect x="310" y="399" width="11" height="15" fill="#ffd36b" stroke="#16120f" stroke-width="2"/><rect x="332" y="399" width="11" height="15" fill="#ffd36b" stroke="#16120f" stroke-width="2"/><rect x="354" y="399" width="11" height="15" fill="#1c2145" stroke="#16120f" stroke-width="2"/><rect x="384" y="249" width="104" height="171" rx="0" fill="#2d3466" stroke="#16120f" stroke-width="4"/><rect x="396" y="265" width="11" height="15" fill="#ffd36b" stroke="#16120f" stroke-width="2"/><rect x="418" y="265" width="11" height="15" fill="#1c2145" stroke="#16120f" stroke-width="2"/><rect x="440" y="265" width="11" height="15" fill="#1c2145" stroke="#16120f" stroke-width="2"/><rect x="462" y="265" width="11" height="15" fill="#1c2145" stroke="#16120f" stroke-width="2"/><rect x="396" y="289" width="11" height="15" fill="#1c2145" stroke="#16120f" stroke-width="2"/><rect x="418" y="289" width="11" height="15" fill="#ffd36b" stroke="#16120f" stroke-width="2"/><rect x="440" y="289" width="11" height="15" fill="#1c2145" stroke="#16120f" stroke-width="2"/><rect x="462" y="289" width="11" height="15" fill="#1c2145" stroke="#16120f" stroke-width="2"/><rect x="396" y="313" width="11" height="15" fill="#1c2145" stroke="#16120f" stroke-width="2"/><rect x="418" y="313" width="11" height="15" fill="#1c2145" stroke="#16120f" stroke-width="2"/><rect x="440" y="313" width="11" height="15" fill="#1c2145" stroke="#16120f" stroke-width="2"/><rect x="462" y="313" width="11" height="15" fill="#ffd36b" stroke="#16120f" stroke-width="2"/><rect x="396" y="337" width="11" height="15" fill="#1c2145" stroke="#16120f" stroke-width="2"/><rect x="418" y="337" width="11" height="15" fill="#1c2145" stroke="#16120f" stroke-width="2"/><rect x="440" y="337" width="11" height="15" fill="#ffd36b" stroke="#16120f" stroke-width="2"/><rect x="462" y="337" width="11" height="15" fill="#1c2145" stroke="#16120f" stroke-width="2"/><rect x="396" y="361" width="11" height="15" fill="#1c2145" stroke="#16120f" stroke-width="2"/><rect x="418" y="361" width="11" height="15" fill="#ffd36b" stroke="#16120f" stroke-width="2"/><rect x="440" y="361" width="11" height="15" fill="#1c2145" stroke="#16120f" stroke-width="2"/><rect x="462" y="361" width="11" height="15" fill="#ffd36b" stroke="#16120f" stroke-width="2"/><rect x="396" y="385" width="11" height="15" fill="#1c2145" stroke="#16120f" stroke-width="2"/><rect x="418" y="385" width="11" height="15" fill="#ffd36b" stroke="#16120f" stroke-width="2"/><rect x="440" y="385" width="11" height="15" fill="#ffd36b" stroke="#16120f" stroke-width="2"/><rect x="462" y="385" width="11" height="15" fill="#1c2145" stroke="#16120f" stroke-width="2"/><rect x="484" y="224" width="109" height="196" rx="0" fill="#323a70" stroke="#16120f" stroke-width="4"/><rect x="496" y="240" width="11" height="15" fill="#ffd36b" stroke="#16120f" stroke-width="2"/><rect x="518" y="240" width="11" height="15" fill="#1c2145" stroke="#16120f" stroke-width="2"/><rect x="540" y="240" width="11" height="15" fill="#ffd36b" stroke="#16120f" stroke-width="2"/><rect x="562" y="240" width="11" height="15" fill="#1c2145" stroke="#16120f" stroke-width="2"/><rect x="496" y="264" width="11" height="15" fill="#ffd36b" stroke="#16120f" stroke-width="2"/><rect x="518" y="264" width="11" height="15" fill="#1c2145" stroke="#16120f" stroke-width="2"/><rect x="540" y="264" width="11" height="15" fill="#1c2145" stroke="#16120f" stroke-width="2"/><rect x="562" y="264" width="11" height="15" fill="#1c2145" stroke="#16120f" stroke-width="2"/><rect x="496" y="288" width="11" height="15" fill="#ffd36b" stroke="#16120f" stroke-width="2"/><rect x="518" y="288" width="11" height="15" fill="#1c2145" stroke="#16120f" stroke-width="2"/><rect x="540" y="288" width="11" height="15" fill="#ffd36b" stroke="#16120f" stroke-width="2"/><rect x="562" y="288" width="11" height="15" fill="#1c2145" stroke="#16120f" stroke-width="2"/><rect x="496" y="312" width="11" height="15" fill="#1c2145" stroke="#16120f" stroke-width="2"/><rect x="518" y="312" width="11" height="15" fill="#ffd36b" stroke="#16120f" stroke-width="2"/><rect x="540" y="312" width="11" height="15" fill="#1c2145" stroke="#16120f" stroke-width="2"/><rect x="562" y="312" width="11" height="15" fill="#1c2145" stroke="#16120f" stroke-width="2"/><rect x="496" y="336" width="11" height="15" fill="#1c2145" stroke="#16120f" stroke-width="2"/><rect x="518" y="336" width="11" height="15" fill="#ffd36b" stroke="#16120f" stroke-width="2"/><rect x="540" y="336" width="11" height="15" fill="#1c2145" stroke="#16120f" stroke-width="2"/><rect x="562" y="336" width="11" height="15" fill="#1c2145" stroke="#16120f" stroke-width="2"/><rect x="496" y="360" width="11" height="15" fill="#1c2145" stroke="#16120f" stroke-width="2"/><rect x="518" y="360" width="11" height="15" fill="#ffd36b" stroke="#16120f" stroke-width="2"/><rect x="540" y="360" width="11" height="15" fill="#ffd36b" stroke="#16120f" stroke-width="2"/><rect x="562" y="360" width="11" height="15" fill="#1c2145" stroke="#16120f" stroke-width="2"/><rect x="496" y="384" width="11" height="15" fill="#1c2145" stroke="#16120f" stroke-width="2"/><rect x="518" y="384" width="11" height="15" fill="#ffd36b" stroke="#16120f" stroke-width="2"/><rect x="540" y="384" width="11" height="15" fill="#ffd36b" stroke="#16120f" stroke-width="2"/><rect x="562" y="384" width="11" height="15" fill="#ffd36b" stroke="#16120f" stroke-width="2"/><rect x="589" y="204" width="80" height="216" rx="0" fill="#323a70" stroke="#16120f" stroke-width="4"/><rect x="601" y="220" width="11" height="15" fill="#ffd36b" stroke="#16120f" stroke-width="2"/><rect x="623" y="220" width="11" height="15" fill="#ffd36b" stroke="#16120f" stroke-width="2"/><rect x="645" y="220" width="11" height="15" fill="#ffd36b" stroke="#16120f" stroke-width="2"/><rect x="601" y="244" width="11" height="15" fill="#1c2145" stroke="#16120f" stroke-width="2"/><rect x="623" y="244" width="11" height="15" fill="#ffd36b" stroke="#16120f" stroke-width="2"/><rect x="645" y="244" width="11" height="15" fill="#1c2145" stroke="#16120f" stroke-width="2"/><rect x="601" y="268" width="11" height="15" fill="#ffd36b" stroke="#16120f" stroke-width="2"/><rect x="623" y="268" width="11" height="15" fill="#ffd36b" stroke="#16120f" stroke-width="2"/><rect x="645" y="268" width="11" height="15" fill="#1c2145" stroke="#16120f" stroke-width="2"/><rect x="601" y="292" width="11" height="15" fill="#ffd36b" stroke="#16120f" stroke-width="2"/><rect x="623" y="292" width="11" height="15" fill="#1c2145" stroke="#16120f" stroke-width="2"/><rect x="645" y="292" width="11" height="15" fill="#ffd36b" stroke="#16120f" stroke-width="2"/><rect x="601" y="316" width="11" height="15" fill="#1c2145" stroke="#16120f" stroke-width="2"/><rect x="623" y="316" width="11" height="15" fill="#1c2145" stroke="#16120f" stroke-width="2"/><rect x="645" y="316" width="11" height="15" fill="#1c2145" stroke="#16120f" stroke-width="2"/><rect x="601" y="340" width="11" height="15" fill="#ffd36b" stroke="#16120f" stroke-width="2"/><rect x="623" y="340" width="11" height="15" fill="#1c2145" stroke="#16120f" stroke-width="2"/><rect x="645" y="340" width="11" height="15" fill="#ffd36b" stroke="#16120f" stroke-width="2"/><rect x="601" y="364" width="11" height="15" fill="#1c2145" stroke="#16120f" stroke-width="2"/><rect x="623" y="364" width="11" height="15" fill="#ffd36b" stroke="#16120f" stroke-width="2"/><rect x="645" y="364" width="11" height="15" fill="#ffd36b" stroke="#16120f" stroke-width="2"/><rect x="601" y="388" width="11" height="15" fill="#1c2145" stroke="#16120f" stroke-width="2"/><rect x="623" y="388" width="11" height="15" fill="#1c2145" stroke="#16120f" stroke-width="2"/><rect x="645" y="388" width="11" height="15" fill="#1c2145" stroke="#16120f" stroke-width="2"/><rect x="-5" y="420" width="650" height="230" rx="0" fill="#34343f" stroke="#16120f" stroke-width="4"/><path d="M 0 450 H 640" stroke="#16120f" stroke-width="2" opacity=".35"/><path d="M 0 484 H 640" stroke="#16120f" stroke-width="2" opacity=".35"/><path d="M 0 518 H 640" stroke="#16120f" stroke-width="2" opacity=".35"/><path d="M 0 552 H 640" stroke="#16120f" stroke-width="2" opacity=".35"/><path d="M 0 586 H 640" stroke="#16120f" stroke-width="2" opacity=".35"/><path d="M 0 620 H 640" stroke="#16120f" stroke-width="2" opacity=".35"/><rect x="52" y="350" width="16" height="90" rx="2" fill="#6b4a2a" stroke="#16120f" stroke-width="4"/><circle cx="60" cy="330" r="48" fill="#1f4a36" stroke="#16120f" stroke-width="5"/><circle cx="36" cy="350" r="30" fill="#265a40" stroke="#16120f" stroke-width="4"/><circle cx="86" cy="352" r="28" fill="#1f4a36" stroke="#16120f" stroke-width="4"/><rect x="582" y="350" width="16" height="90" rx="2" fill="#6b4a2a" stroke="#16120f" stroke-width="4"/><circle cx="590" cy="330" r="48" fill="#1f4a36" stroke="#16120f" stroke-width="5"/><circle cx="566" cy="350" r="30" fill="#265a40" stroke="#16120f" stroke-width="4"/><circle cx="616" cy="352" r="28" fill="#1f4a36" stroke="#16120f" stroke-width="4"/><defs><radialGradient id="g170"><stop offset="0" stop-color="#ffe9a0" stop-opacity=".9"/><stop offset="1" stop-color="#ffe9a0" stop-opacity="0"/></radialGradient></defs><circle cx="184" cy="320" r="110" fill="url(#g170)"/><rect x="166" y="320" width="8" height="150" rx="2" fill="#4a4f5a" stroke="#16120f" stroke-width="4"/><path d="M 170 320 Q 170 300 192 302" fill="none" stroke="#16120f" stroke-width="10"/><path d="M 170 320 Q 170 300 192 302" fill="none" stroke="#4a4f5a" stroke-width="5"/><ellipse cx="194" cy="306" rx="13" ry="7" fill="#fff6c0" stroke="#16120f" stroke-width="3"/><defs><radialGradient id="g480"><stop offset="0" stop-color="#ffe9a0" stop-opacity=".9"/><stop offset="1" stop-color="#ffe9a0" stop-opacity="0"/></radialGradient></defs><circle cx="494" cy="320" r="110" fill="url(#g480)"/><rect x="476" y="320" width="8" height="150" rx="2" fill="#4a4f5a" stroke="#16120f" stroke-width="4"/><path d="M 480 320 Q 480 300 502 302" fill="none" stroke="#16120f" stroke-width="10"/><path d="M 480 320 Q 480 300 502 302" fill="none" stroke="#4a4f5a" stroke-width="5"/><ellipse cx="504" cy="306" rx="13" ry="7" fill="#fff6c0" stroke="#16120f" stroke-width="3"/><ellipse cx="320" cy="540" rx="150" ry="38" fill="#aab4be" stroke="#16120f" stroke-width="5"/><ellipse cx="320" cy="536" rx="130" ry="30" fill="#3d6fb0" stroke="#16120f" stroke-width="3"/><rect x="310" y="430" width="20" height="106" rx="3" fill="#aab4be" stroke="#16120f" stroke-width="4"/><ellipse cx="320" cy="432" rx="46" ry="12" fill="#aab4be" stroke="#16120f" stroke-width="4"/><ellipse cx="320" cy="430" rx="34" ry="8" fill="#3d6fb0" stroke="#16120f" stroke-width="2"/><path d="M 320 430 Q 260 380 224.0 470" fill="none" stroke="#3d6fb0" stroke-width="5"/><path d="M 320 430 Q 290 380 272.0 470" fill="none" stroke="#3d6fb0" stroke-width="5"/><path d="M 320 430 Q 350 380 368.0 470" fill="none" stroke="#3d6fb0" stroke-width="5"/><path d="M 320 430 Q 380 380 416.0 470" fill="none" stroke="#3d6fb0" stroke-width="5"/>
</svg>
