<svg xmlns="http://www.w3.org/2000/svg" width="640" height="640" viewBox="0 0 640 640" stroke-linejoin="round" stroke-linecap="round">
<defs><linearGradient id="sky" x1="0" y1="0" x2="0" y2="1"><stop offset="0" stop-color="#1a0f1f"/><stop offset="1" stop-color="#5a1d22"/></linearGradient></defs><rect width="640" height="640" fill="url(#sky)"/><circle cx="592" cy="25" r="1.4" fill="#fff" opacity=".5"/><circle cx="501" cy="200" r="1.4" fill="#fff" opacity=".5"/><circle cx="272" cy="14" r="1.4" fill="#fff" opacity=".5"/><circle cx="5" cy="42" r="1.4" fill="#fff" opacity=".5"/><circle cx="605" cy="125" r="1.4" fill="#fff" opacity=".5"/><circle cx="387" cy="86" r="1.4" fill="#fff" opacity=".5"/><circle cx="27" cy="74" r="1.4" fill="#fff" opacity=".5"/><circle cx="505" cy="55" r="1.4" fill="#fff" opacity=".5"/><circle cx="428" cy="142" r="1.4" fill="#fff" opacity=".5"/><circle cx="557" cy="179" r="1.4" fill="#fff" opacity=".5"/><circle cx="101" cy="54" r="1.4" fill="#fff" opacity=".5"/><circle cx="581" cy="146" r="1.4" fill="#fff" opacity=".5"/><circle cx="276" cy="174" r="1.4" fill="#fff" opacity=".5"/><circle cx="629" cy="180" r="1.4" fill="#fff" opacity=".5"/><circle cx="95" cy="113" r="1.4" fill="#fff" opacity=".5"/><circle cx="348" cy="28" r="1.4" fill="#fff" opacity=".5"/><circle cx="375" cy="109" r="1.4" fill="#fff" opacity=".5"/><circle cx="261" cy="118" r="1.4" fill="#fff" opacity=".5"/><circle cx="101" cy="198" r="1.4" fill="#fff" opacity=".5"/><circle cx="206" cy="184" r="1.4" fill="#fff" opacity=".5"/><circle cx="303" cy="29" r="1.4" fill="#fff" opacity=".5"/><circle cx="51" cy="155" r="1.4" fill="#fff" opacity=".5"/><circle cx="210" cy="172" r="1.4" fill="#fff" opacity=".5"/><circle cx="374" cy="129" r="1.4" fill="#fff" opacity=".5"/><circle cx="203" cy="136" r="1.4" fill="#fff" opacity=".5"/><circle cx="594" cy="170" r="1.4" fill="#fff" opacity=".5"/><circle cx="520" cy="12" r="1.4" fill="#fff" opacity=".5"/><circle cx="375" cy="67" r="1.4" fill="#fff" opacity=".5"/><circle cx="621" cy="115" r="1.4" fill="#fff" opacity=".5"/><circle cx="316" cy="96" r="1.4" fill="#fff" opacity=".5"/><circle cx="120" cy="120" r="60" fill="#3a2a30" stroke="#16120f" stroke-width="6"/><circle cx="180" cy="90" r="70" fill="#3a2a30" stroke="#16120f" stroke-width="6"/><circle cx="250" cy="70" r="60" fill="#3a2a30" stroke="#16120f" stroke-width="6"/><circle cx="340" cy="100" r="70" fill="#3a2a30" stroke="#16120f" stroke-width="6"/><circle cx="450" cy="70" r="64" fill="#3a2a30" stroke="#16120f" stroke-width="6"/><circle cx="540" cy="110" r="60" fill="#3a2a30" stroke="#16120f" stroke-width="6"/><circle cx="120" cy="120" r="60" fill="#3a2a30"/><circle cx="180" cy="90" r="70" fill="#3a2a30"/><circle cx="250" cy="70" r="60" fill="#3a2a30"/><circle cx="340" cy="100" r="70" fill="#3a2a30"/><circle cx="450" cy="70" r="64" fill="#3a2a30"/><circle cx="540" cy="110" r="60" fill="#3a2a30"/><polygon points="-10,470 -10,300 40,330 70,250 120,310 160,280 210,360 250,300 300,380 330,470" fill="#2a1c2c" stroke="#16120f" stroke-width="5"/><polygon points="330,470 350,330 400,290 430,340 480,260 530,330 580,300 650,340 650,470" fill="#2a1c2c" stroke="#16120f" stroke-width="5"/><polygon points="-10,480 -10,190 46,222 70,140 122,196 160,160 206,240 236,480" fill="#241826" stroke="#16120f" stroke-width="5"/><polygon points="420,480 430,250 470,210 500,260 540,190 590,240 650,200 650,480" fill="#241826" stroke="#16120f" stroke-width="5"/><rect x="20" y="250" width="34" height="34" rx="2" fill="#1b1520" stroke="#16120f" stroke-width="3"/><rect x="70" y="250" width="34" height="34" rx="2" fill="#1b1520" stroke="#16120f" stroke-width="3"/><rect x="20" y="310" width="34" height="34" rx="2" fill="#1b1520" stroke="#16120f" stroke-width="3"/><rect x="90" y="310" width="34" height="34" rx="2" fill="#1b1520" stroke="#16120f" stroke-width="3"/><rect x="24" y="370" width="34" height="34" rx="2" fill="#1b1520" stroke="#16120f" stroke-width="3"/><rect x="70" y="370" width="34" height="34" rx="2" fill="#1b1520" stroke="#16120f" stroke-width="3"/><rect x="455" y="300" width="34" height="34" rx="2" fill="#1b1520" stroke="#16120f" stroke-width="3"/><rect x="510" y="300" width="34" height="34" rx="2" fill="#1b1520" stroke="#16120f" stroke-width="3"/><rect x="570" y="300" width="34" height="34" rx="2" fill="#1b1520" stroke="#16120f" stroke-width="3"/><rect x="455" y="360" width="34" height="34" rx="2" fill="#1b1520" stroke="#16120f" stroke-width="3"/><rect x="520" y="360" width="34" height="34" rx="2" fill="#1b1520" stroke="#16120f" stroke-width="3"/><rect x="580" y="360" width="34" height="34" rx="2" fill="#1b1520" stroke="#16120f" stroke-width="3"/><rect x="-5" y="470" width="650" height="180" rx="0" fill="#2e2a30" stroke="#16120f" stroke-width="5"/><polygon points="60,500 100,470 150,480 160,520" fill="#3a3646" stroke="#16120f" stroke-width="4"/><polygon points="260,520 300,484 360,496 380,530" fill="#3a3646" stroke="#16120f" stroke-width="4"/><polygon points="480,510 520,480 580,490 600,530" fill="#3a3646" stroke="#16120f" stroke-width="4"/><polyline transform="translate(150,520)" points="150,60 131.08962848801366,62.34409071209153 108.21562489454337,61.34061746472205 84.60089280177968,57.849988198948424 65.94938972681237,52.311968757709856" fill="none" stroke="#16120f" stroke-width="6"/><polyline transform="translate(150,520)" points="150,60 132.64167965487624,54.751527768075945 114.58722896031479,46.4457184635841 103.51791170877146,39.63798471926902 96.31947796976777,31.063528149158948" fill="none" stroke="#16120f" stroke-width="6"/><polyline transform="translate(150,520)" points="150,60 135.815806435079,55.56723737765526 114.0557195142838,50.532674249256566 87.26335389165524,46.59244080717235 70.99989792436465,42.06695740757845" fill="none" stroke="#16120f" stroke-width="6"/><polyline transform="translate(150,520)" points="150,60 139.9174636238512,53.528682866645994 124.91349970247623,47.0927702923973 106.66320836203094,40.25388583157596 97.30826557128754,32.945522170435154" fill="none" stroke="#16120f" stroke-width="6"/><polyline transform="translate(150,520)" points="150,60 169.98469857794407,51.586223258500546 184.92080275033564,45.414618693445334 211.7582609245892,41.92892886934916 240.98936286814626,39.769398747648054" fill="none" stroke="#16120f" stroke-width="6"/><polyline transform="translate(150,520)" points="150,60 181.06054555984844,57.39688548431488 205.33363664877567,54.529941887952475 237.84799835151887,51.48927615883601 266.7376445961795,52.325971289213534" fill="none" stroke="#16120f" stroke-width="6"/><polyline transform="translate(150,520)" points="150,60 179.0,60.0 209.43380852144492,62.47213595499958 230.63501092535557,66.28755465747865 243.49644770518276,73.58308529596302" fill="none" stroke="#16120f" stroke-width="6"/><defs><radialGradient id="f110"><stop offset="0" stop-color="#ff8a2b" stop-opacity=".9"/><stop offset="1" stop-color="#ff8a2b" stop-opacity="0"/></radialGradient></defs><circle cx="110" cy="480" r="120" fill="url(#f110)"/><g transform="translate(110,490) scale(1.4)"><path d="M 0 0 C -24 -8 -26 -44 -8 -68 C -8 -44 4 -40 10 -56 C 28 -38 30 -8 0 0 Z" fill="#ff6a2b" stroke="#16120f" stroke-width="2.857142857142857"/><path d="M 0 -4 C -12 -8 -12 -26 -2 -38 C 0 -26 6 -24 8 -30 C 16 -18 14 -6 0 -4 Z" fill="#ffd23f" stroke="#16120f" stroke-width="1.7857142857142858"/></g><defs><radialGradient id="f300"><stop offset="0" stop-color="#ff8a2b" stop-opacity=".9"/><stop offset="1" stop-color="#ff8a2b" stop-opacity="0"/></radialGradient></defs><circle cx="300" cy="480" r="120" fill="url(#f300)"/><g transform="translate(300,490) scale(1.4)"><path d="M 0 0 C -24 -8 -26 -44 -8 -68 C -8 -44 4 -40 10 -56 C 28 -38 30 -8 0 0 Z" fill="#ff6a2b" stroke="#16120f" stroke-width="2.857142857142857"/><path d="M 0 -4 C -12 -8 -12 -26 -2 -38 C 0 -26 6 -24 8 -30 C 16 -18 14 -6 0 -4 Z" fill="#ffd23f" stroke="#16120f" stroke-width="1.7857142857142858"/></g><defs><radialGradient id="f520"><stop offset="0" stop-color="#ff8a2b" stop-opacity=".9"/><stop offset="1" stop-color="#ff8a2b" stop-opacity="0"/></radialGradient></defs><circle cx="520" cy="480" r="120" fill="url(#f520)"/><g transform="translate(520,490) scale(1.4)"><path d="M 0 0 C -24 -8 -26 -44 -8 -68 C -8 -44 4 -40 10 -56 C 28 -38 30 -8 0 0 Z" fill="#ff6a2b" stroke="#16120f" stroke-width="2.857142857142857"/><path d="M 0 -4 C -12 -8 -12 -26 -2 -38 C 0 -26 6 -24 8 -30 C 16 -18 14 -6 0 -4 Z" fill="#ffd23f" stroke="#16120f" stroke-width="1.7857142857142858"/></g>
</svg>
