<svg xmlns="http://www.w3.org/2000/svg" width="104" height="164" viewBox="-12 -12 104 164" stroke-linejoin="round" stroke-linecap="round">
<path d="M36,108 L18,126" fill="none" stroke="#16120f" stroke-width="17.0"/><path d="M36,108 L18,126" fill="none" stroke="#e9b48a" stroke-width="11"/><path d="M44,108 L68,116" fill="none" stroke="#16120f" stroke-width="17.0"/><path d="M44,108 L68,116" fill="none" stroke="#e9b48a" stroke-width="11"/><polygon points="26,64 54,64 68,118 12,118" fill="#3f8a5a" stroke="#16120f" stroke-width="4"/><path d="M26,52 L8,74" fill="none" stroke="#16120f" stroke-width="15.0"/><path d="M26,52 L8,74" fill="none" stroke="#3f8a5a" stroke-width="9"/><path d="M54,52 L72,40" fill="none" stroke="#16120f" stroke-width="15.0"/><path d="M54,52 L72,40" fill="none" stroke="#3f8a5a" stroke-width="9"/><circle cx="8" cy="74" r="5.5" fill="#e9b48a" stroke="#16120f" stroke-width="3"/><circle cx="72" cy="40" r="5.5" fill="#e9b48a" stroke="#16120f" stroke-width="3"/><rect x="24" y="40" width="32" height="34" rx="12" fill="#3f8a5a" stroke="#16120f" stroke-width="4"/><rect x="20" y="16" width="12" height="36" rx="6" fill="#6b3b1d" stroke="#16120f" stroke-width="4"/><rect x="48" y="16" width="12" height="36" rx="6" fill="#6b3b1d" stroke="#16120f" stroke-width="4"/><circle cx="40" cy="22" r="17" fill="#e9b48a" stroke="#16120f" stroke-width="4"/><path d="M 23 20 A 17 17 0 0 1 57 20 L 50.54 13.5 Q 40 19.96 29.8 12.649999999999999 Z" fill="#6b3b1d" stroke="#16120f" stroke-width="3"/><circle cx="34" cy="24" r="4.6" fill="#fff" stroke="#16120f" stroke-width="2"/><circle cx="46" cy="24" r="4.6" fill="#fff" stroke="#16120f" stroke-width="2"/><circle cx="34" cy="24" r="1.8" fill="#16120f" stroke="#16120f" stroke-width="1"/><circle cx="46" cy="24" r="1.8" fill="#16120f" stroke="#16120f" stroke-width="1"/><ellipse cx="40" cy="34" rx="4.5" ry="6" fill="#16120f" stroke="#16120f" stroke-width="1"/>
</svg>
