<svg xmlns="http://www.w3.org/2000/svg" width="254" height="274" viewBox="-12 -12 254 274" stroke-linejoin="round" stroke-linecap="round">
<polygon points="48,70 112,70 196,96 166,130 214,166 156,186 184,236 14,232" fill="#1f8f8a" stroke="#16120f" stroke-width="4"/><path d="M66,150 L66,222" fill="none" stroke="#16120f" stroke-width="28.0"/><path d="M66,150 L66,222" fill="none" stroke="#e8b730" stroke-width="22"/><path d="M66,222 L66.0,236.0" fill="none" stroke="#16120f" stroke-width="32.0"/><path d="M66,222 L66.0,236.0" fill="none" stroke="#1f8f8a" stroke-width="26"/><path d="M94,150 L94,222" fill="none" stroke="#16120f" stroke-width="28.0"/><path d="M94,150 L94,222" fill="none" stroke="#e8b730" stroke-width="22"/><path d="M94,222 L94.0,236.0" fill="none" stroke="#16120f" stroke-width="32.0"/><path d="M94,222 L94.0,236.0" fill="none" stroke="#1f8f8a" stroke-width="26"/><path d="M48,76 L18,112 L46,142" fill="none" stroke="#16120f" stroke-width="22.0"/><path d="M48,76 L18,112 L46,142" fill="none" stroke="#e8b730" stroke-width="16"/><path d="M112,76 L142,112 L114,142" fill="none" stroke="#16120f" stroke-width="22.0"/><path d="M112,76 L142,112 L114,142" fill="none" stroke="#e8b730" stroke-width="16"/><circle cx="46" cy="142" r="8.5" fill="#1f8f8a" stroke="#16120f" stroke-width="4"/><circle cx="114" cy="142" r="8.5" fill="#1f8f8a" stroke="#16120f" stroke-width="4"/><rect x="44" y="60" width="72" height="100" rx="20" fill="#e8b730" stroke="#16120f" stroke-width="4"/><rect x="44" y="144" width="72" height="16" rx="4" fill="#1f8f8a" stroke="#16120f" stroke-width="4"/><g id="emblem">
<circle cx="80" cy="102" r="14" fill="#f06b2b" stroke="#16120f" stroke-width="4"/><line x1="97.0" y1="102.0" x2="103.0" y2="102.0" stroke="#16120f" stroke-width="3"/><line x1="92.0208152801713" y1="114.0208152801713" x2="96.2634559672906" y2="118.2634559672906" stroke="#16120f" stroke-width="3"/><line x1="80.0" y1="119.0" x2="80.0" y2="125.0" stroke="#16120f" stroke-width="3"/><line x1="67.9791847198287" y1="114.0208152801713" x2="63.7365440327094" y2="118.2634559672906" stroke="#16120f" stroke-width="3"/><line x1="63.0" y1="102.0" x2="57.0" y2="102.0" stroke="#16120f" stroke-width="3"/><line x1="67.9791847198287" y1="89.9791847198287" x2="63.7365440327094" y2="85.7365440327094" stroke="#16120f" stroke-width="3"/><line x1="80.0" y1="85.0" x2="80.0" y2="79.0" stroke="#16120f" stroke-width="3"/><line x1="92.0208152801713" y1="89.9791847198287" x2="96.26345596729058" y2="85.7365440327094" stroke="#16120f" stroke-width="3"/>
</g><g id="head">
<circle cx="80" cy="36" r="26" fill="#e9b48a" stroke="#16120f" stroke-width="4"/><clipPath id="cd"><circle cx="80" cy="36" r="26"/></clipPath><g clip-path="url(#cd)"><rect x="54" y="10" width="52" height="19.5" fill="#2b1d14"/><rect x="54" y="31.32" width="52" height="13.0" fill="#f6f1e6"/></g><circle cx="80" cy="36" r="26" fill="none" stroke="#16120f" stroke-width="4"/><rect x="83.9" y="35.48" width="11.700000000000001" height="4.68" fill="#16120f"/>
</g><path d="M 72.2 54.2 Q 82.6 56.8 91.7 50.3" fill="none" stroke="#16120f" stroke-width="3"/>
</svg>
