<svg xmlns="http://www.w3.org/2000/svg" width="294" height="274" viewBox="-12 -12 294 274" stroke-linejoin="round" stroke-linecap="round">
<g transform="translate(34,0)"><polygon points="48,70 112,70 90,150 30,200 -14,176 -30,120 8,92" fill="#1f8f8a" stroke="#16120f" stroke-width="4"/><path d="M62,150 L34,194 L14,226" fill="none" stroke="#16120f" stroke-width="28.0"/><path d="M62,150 L34,194 L14,226" fill="none" stroke="#e8b730" stroke-width="22"/><path d="M14,226 L6.58001483995548,237.87197625607124" fill="none" stroke="#16120f" stroke-width="32.0"/><path d="M14,226 L6.58001483995548,237.87197625607124" fill="none" stroke="#1f8f8a" stroke-width="26"/><path d="M98,150 L126,194 L150,226" fill="none" stroke="#16120f" stroke-width="28.0"/><path d="M98,150 L126,194 L150,226" fill="none" stroke="#e8b730" stroke-width="22"/><path d="M150,226 L158.4,237.2" fill="none" stroke="#16120f" stroke-width="32.0"/><path d="M150,226 L158.4,237.2" fill="none" stroke="#1f8f8a" stroke-width="26"/><path d="M48,76 L24,92 L10,120" fill="none" stroke="#16120f" stroke-width="22.0"/><path d="M48,76 L24,92 L10,120" fill="none" stroke="#e8b730" stroke-width="16"/><path d="M112,76 L160,84 L204,80" fill="none" stroke="#16120f" stroke-width="22.0"/><path d="M112,76 L160,84 L204,80" fill="none" stroke="#e8b730" stroke-width="16"/><circle cx="10" cy="120" r="8.5" fill="#1f8f8a" stroke="#16120f" stroke-width="4"/><circle cx="204" cy="80" r="8.5" fill="#1f8f8a" stroke="#16120f" stroke-width="4"/><rect x="44" y="60" width="72" height="100" rx="20" fill="#e8b730" stroke="#16120f" stroke-width="4"/><rect x="44" y="144" width="72" height="16" rx="4" fill="#1f8f8a" stroke="#16120f" stroke-width="4"/><g id="emblem">
<circle cx="80" cy="102" r="14" fill="#f06b2b" stroke="#16120f" stroke-width="4"/><line x1="97.0" y1="102.0" x2="103.0" y2="102.0" stroke="#16120f" stroke-width="3"/><line x1="92.0208152801713" y1="114.0208152801713" x2="96.2634559672906" y2="118.2634559672906" stroke="#16120f" stroke-width="3"/><line x1="80.0" y1="119.0" x2="80.0" y2="125.0" stroke="#16120f" stroke-width="3"/><line x1="67.9791847198287" y1="114.0208152801713" x2="63.7365440327094" y2="118.2634559672906" stroke="#16120f" stroke-width="3"/><line x1="63.0" y1="102.0" x2="57.0" y2="102.0" stroke="#16120f" stroke-width="3"/><line x1="67.9791847198287" y1="89.9791847198287" x2="63.7365440327094" y2="85.7365440327094" stroke="#16120f" stroke-width="3"/><line x1="80.0" y1="85.0" x2="80.0" y2="79.0" stroke="#16120f" stroke-width="3"/><line x1="92.0208152801713" y1="89.9791847198287" x2="96.26345596729058" y2="85.7365440327094" stroke="#16120f" stroke-width="3"/>
</g><g id="head">
<circle cx="80" cy="36" r="26" fill="#e9b48a" stroke="#16120f" stroke-width="4"/><clipPath id="ca"><circle cx="80" cy="36" r="26"/></clipPath><g clip-path="url(#ca)"><rect x="54" y="10" width="52" height="19.5" fill="#2b1d14"/><rect x="54" y="31.32" width="52" height="13.0" fill="#f6f1e6"/></g><circle cx="80" cy="36" r="26" fill="none" stroke="#16120f" stroke-width="4"/><rect x="83.9" y="35.48" width="11.700000000000001" height="4.68" fill="#16120f"/>
</g><g id="fist_glow">
<circle cx="214" cy="80" r="17" fill="#ff9a3c" stroke="#16120f" stroke-width="4"/><circle cx="214" cy="80" r="8" fill="#fff2a8" stroke="#16120f" stroke-width="3"/><line x1="236.0" y1="80.0" x2="246.0" y2="80.0" stroke="#16120f" stroke-width="4"/><line x1="229.55634918610406" y1="95.55634918610404" x2="236.62741699796953" y2="102.62741699796952" stroke="#16120f" stroke-width="4"/><line x1="214.0" y1="102.0" x2="214.0" y2="112.0" stroke="#16120f" stroke-width="4"/><line x1="198.44365081389594" y1="95.55634918610404" x2="191.37258300203047" y2="102.62741699796952" stroke="#16120f" stroke-width="4"/><line x1="192.0" y1="80.0" x2="182.0" y2="80.0" stroke="#16120f" stroke-width="4"/><line x1="198.44365081389594" y1="64.44365081389596" x2="191.37258300203047" y2="57.37258300203048" stroke="#16120f" stroke-width="4"/><line x1="214.0" y1="58.0" x2="214.0" y2="48.0" stroke="#16120f" stroke-width="4"/><line x1="229.55634918610403" y1="64.44365081389596" x2="236.6274169979695" y2="57.372583002030474" stroke="#16120f" stroke-width="4"/>
</g></g>
</svg>
