<svg xmlns="http://www.w3.org/2000/svg" width="104" height="164" viewBox="-12 -12 104 164" stroke-linejoin="round" stroke-linecap="round">
<path d="M33,92 L33,130" fill="none" stroke="#16120f" stroke-width="19.0"/><path d="M33,92 L33,130" fill="none" stroke="#26262e" stroke-width="13"/><path d="M33,130 L41,134" fill="none" stroke="#16120f" stroke-width="19.0"/><path d="M33,130 L41,134" fill="none" stroke="#22252e" stroke-width="13"/><path d="M47,92 L47,130" fill="none" stroke="#16120f" stroke-width="19.0"/><path d="M47,92 L47,130" fill="none" stroke="#26262e" stroke-width="13"/><path d="M47,130 L55,134" fill="none" stroke="#16120f" stroke-width="19.0"/><path d="M47,130 L55,134" fill="none" stroke="#22252e" stroke-width="13"/><path d="M26,50 L10,32" fill="none" stroke="#16120f" stroke-width="15.0"/><path d="M26,50 L10,32" fill="none" stroke="#d9d9d9" stroke-width="9"/><path d="M54,50 L70,32" fill="none" stroke="#16120f" stroke-width="15.0"/><path d="M54,50 L70,32" fill="none" stroke="#d9d9d9" stroke-width="9"/><circle cx="10" cy="32" r="5.5" fill="#e9b48a" stroke="#16120f" stroke-width="3"/><circle cx="70" cy="32" r="5.5" fill="#e9b48a" stroke="#16120f" stroke-width="3"/><rect x="24" y="40" width="32" height="58" rx="14" fill="#d9d9d9" stroke="#16120f" stroke-width="4"/><line x1="27" y1="50" x2="53" y2="50" stroke="#17151c" stroke-width="5"/><line x1="27" y1="62" x2="53" y2="62" stroke="#17151c" stroke-width="5"/><line x1="27" y1="74" x2="53" y2="74" stroke="#17151c" stroke-width="5"/><line x1="27" y1="86" x2="53" y2="86" stroke="#17151c" stroke-width="5"/><rect x="24" y="40" width="32" height="58" rx="14" fill="none" stroke="#16120f" stroke-width="4"/><circle cx="40" cy="22" r="17" fill="#e9b48a" stroke="#16120f" stroke-width="4"/><path d="M 21 19 A 19 19 0 0 1 59 19 Z" fill="#26262e" stroke="#16120f" stroke-width="4"/><rect x="25" y="18" width="30" height="10" rx="4" fill="#17151c" stroke="#16120f" stroke-width="2"/><circle cx="34" cy="23" r="2" fill="#fff"/><circle cx="46" cy="23" r="2" fill="#fff"/>
</svg>
