<svg xmlns="http://www.w3.org/2000/svg" width="149" height="164" viewBox="-12 -12 149 164" stroke-linejoin="round" stroke-linecap="round">
<path d="M33,92 L33,130" fill="none" stroke="#16120f" stroke-width="19.0"/><path d="M33,92 L33,130" fill="none" stroke="#3a3360" stroke-width="13"/><path d="M33,130 L41,134" fill="none" stroke="#16120f" stroke-width="19.0"/><path d="M33,130 L41,134" fill="none" stroke="#22252e" stroke-width="13"/><path d="M47,92 L47,130" fill="none" stroke="#16120f" stroke-width="19.0"/><path d="M47,92 L47,130" fill="none" stroke="#3a3360" stroke-width="13"/><path d="M47,130 L55,134" fill="none" stroke="#16120f" stroke-width="19.0"/><path d="M47,130 L55,134" fill="none" stroke="#22252e" stroke-width="13"/><path d="M26,52 L16,88" fill="none" stroke="#16120f" stroke-width="15.0"/><path d="M26,52 L16,88" fill="none" stroke="#3f9a5a" stroke-width="9"/><path d="M54,50 L112,42" fill="none" stroke="#16120f" stroke-width="15.0"/><path d="M54,50 L112,42" fill="none" stroke="#3f9a5a" stroke-width="9"/><circle cx="16" cy="88" r="5.5" fill="#e9b48a" stroke="#16120f" stroke-width="3"/><circle cx="112" cy="42" r="5.5" fill="#e9b48a" stroke="#16120f" stroke-width="3"/><rect x="24" y="40" width="32" height="58" rx="14" fill="#3f9a5a" stroke="#16120f" stroke-width="4"/><rect x="20" y="16" width="12" height="36" rx="6" fill="#d9b04a" stroke="#16120f" stroke-width="4"/><rect x="48" y="16" width="12" height="36" rx="6" fill="#d9b04a" stroke="#16120f" stroke-width="4"/><circle cx="40" cy="22" r="17" fill="#e9b48a" stroke="#16120f" stroke-width="4"/><path d="M 23 20 A 17 17 0 0 1 57 20 L 50.54 13.5 Q 40 19.96 29.8 12.649999999999999 Z" fill="#d9b04a" stroke="#16120f" stroke-width="3"/><circle cx="34" cy="24" r="2.4" fill="#16120f" stroke="#16120f" stroke-width="1"/><circle cx="46" cy="24" r="2.4" fill="#16120f" stroke="#16120f" stroke-width="1"/><line x1="29" y1="17" x2="37" y2="21" stroke="#16120f" stroke-width="3"/><line x1="51" y1="17" x2="43" y2="21" stroke="#16120f" stroke-width="3"/><ellipse cx="40" cy="33" rx="6.5" ry="7.5" fill="#16120f" stroke="#16120f" stroke-width="1"/>
</svg>
