<svg xmlns="http://www.w3.org/2000/svg" width="768" height="640" viewBox="0 0 768 640" stroke-linecap="round" stroke-linejoin="round">
  <title>The approach</title>
  <desc>Editable scene layers. POI anchors preserved from PanelData.</desc>
  <defs>
    <clipPath id="photo_crop">
      <rect width="768" height="640" />
    </clipPath>
  </defs>
  <g clip-path="url(#photo_crop)">
    <g id="layer_00" data-label="Environment" transform="translate(0 -260) scale(1.2 1.45) translate(0 0)">
      <defs>
        <linearGradient id="p0_sky" x1="0" y1="0" x2="0" y2="1">
          <stop offset="0" stop-color="#90bcd2" />
          <stop offset="1" stop-color="#e7f2f8" />
        </linearGradient>
      </defs>
      <rect width="640" height="640" fill="url(#p0_sky)" />
      <line x1="162.0" y1="100.0" x2="178.0" y2="100.0" stroke="#e2c17f" stroke-width="5" />
      <line x1="155.03332099679082" y1="126.0" x2="168.88972745734185" y2="134.0" stroke="#e2c17f" stroke-width="5" />
      <line x1="136.0" y1="145.0333209967908" x2="144.0" y2="158.88972745734182" stroke="#e2c17f" stroke-width="5" />
      <line x1="110.0" y1="152.0" x2="110.0" y2="168.0" stroke="#e2c17f" stroke-width="5" />
      <line x1="84.00000000000001" y1="145.03332099679082" x2="76.00000000000001" y2="158.88972745734185" stroke="#e2c17f" stroke-width="5" />
      <line x1="64.96667900320918" y1="126.0" x2="51.110272542658166" y2="134.0" stroke="#e2c17f" stroke-width="5" />
      <line x1="58.0" y1="100.0" x2="42.0" y2="100.00000000000001" stroke="#e2c17f" stroke-width="5" />
      <line x1="64.96667900320918" y1="74.00000000000001" x2="51.11027254265816" y2="66.00000000000003" stroke="#e2c17f" stroke-width="5" />
      <line x1="83.99999999999997" y1="54.96667900320921" x2="75.99999999999997" y2="41.110272542658194" stroke="#e2c17f" stroke-width="5" />
      <line x1="109.99999999999999" y1="48.0" x2="109.99999999999999" y2="32.0" stroke="#e2c17f" stroke-width="5" />
      <line x1="136.0" y1="54.966679003209194" x2="144.0" y2="41.11027254265817" stroke="#e2c17f" stroke-width="5" />
      <line x1="155.0333209967908" y1="73.99999999999997" x2="168.8897274573418" y2="65.99999999999997" stroke="#e2c17f" stroke-width="5" />
      <circle cx="110" cy="100" r="44" fill="#f0e2a5" stroke="#141211" stroke-width="5" />
      <circle cx="101.4" cy="126.6" r="17.6" fill="#fff" stroke="#141211" stroke-width="6" />
      <circle cx="123.4" cy="111.2" r="24.200000000000003" fill="#fff" stroke="#141211" stroke-width="6" />
      <circle cx="152.0" cy="120.0" r="20.900000000000002" fill="#fff" stroke="#141211" stroke-width="6" />
      <circle cx="132.2" cy="131.0" r="18.700000000000003" fill="#fff" stroke="#141211" stroke-width="6" />
      <circle cx="167.4" cy="131.0" r="14.3" fill="#fff" stroke="#141211" stroke-width="6" />
      <circle cx="101.4" cy="126.6" r="17.6" fill="#fff" />
      <circle cx="123.4" cy="111.2" r="24.200000000000003" fill="#fff" />
      <circle cx="152.0" cy="120.0" r="20.900000000000002" fill="#fff" />
      <circle cx="132.2" cy="131.0" r="18.700000000000003" fill="#fff" />
      <circle cx="167.4" cy="131.0" r="14.3" fill="#fff" />
      <circle cx="319.2" cy="74.8" r="12.8" fill="#fff" stroke="#141211" stroke-width="6" />
      <circle cx="335.2" cy="63.6" r="17.6" fill="#fff" stroke="#141211" stroke-width="6" />
      <circle cx="356.0" cy="70.0" r="15.200000000000001" fill="#fff" stroke="#141211" stroke-width="6" />
      <circle cx="341.6" cy="78.0" r="13.600000000000001" fill="#fff" stroke="#141211" stroke-width="6" />
      <circle cx="367.2" cy="78.0" r="10.4" fill="#fff" stroke="#141211" stroke-width="6" />
      <circle cx="319.2" cy="74.8" r="12.8" fill="#fff" />
      <circle cx="335.2" cy="63.6" r="17.6" fill="#fff" />
      <circle cx="356.0" cy="70.0" r="15.200000000000001" fill="#fff" />
      <circle cx="341.6" cy="78.0" r="13.600000000000001" fill="#fff" />
      <circle cx="367.2" cy="78.0" r="10.4" fill="#fff" />
      <circle cx="411.8" cy="204.2" r="11.2" fill="#fff" stroke="#141211" stroke-width="6" />
      <circle cx="425.8" cy="194.4" r="15.399999999999999" fill="#fff" stroke="#141211" stroke-width="6" />
      <circle cx="444.0" cy="200.0" r="13.299999999999999" fill="#fff" stroke="#141211" stroke-width="6" />
      <circle cx="431.4" cy="207.0" r="11.899999999999999" fill="#fff" stroke="#141211" stroke-width="6" />
      <circle cx="453.8" cy="207.0" r="9.1" fill="#fff" stroke="#141211" stroke-width="6" />
      <circle cx="411.8" cy="204.2" r="11.2" fill="#fff" />
      <circle cx="425.8" cy="194.4" r="15.399999999999999" fill="#fff" />
      <circle cx="444.0" cy="200.0" r="13.299999999999999" fill="#fff" />
      <circle cx="431.4" cy="207.0" r="11.899999999999999" fill="#fff" />
      <circle cx="453.8" cy="207.0" r="9.1" fill="#fff" />
      <rect x="-10" y="170" width="170" height="310" rx="0" fill="#d0c4b5" stroke="#141211" stroke-width="4" />
      <rect x="2" y="186" width="11" height="15" fill="#d8e7ee" stroke="#141211" stroke-width="2" />
      <rect x="24" y="186" width="11" height="15" fill="#d8e7ee" stroke="#141211" stroke-width="2" />
      <rect x="46" y="186" width="11" height="15" fill="#d8e7ee" stroke="#141211" stroke-width="2" />
      <rect x="68" y="186" width="11" height="15" fill="#d8e7ee" stroke="#141211" stroke-width="2" />
      <rect x="90" y="186" width="11" height="15" fill="#d8e7ee" stroke="#141211" stroke-width="2" />
      <rect x="112" y="186" width="11" height="15" fill="#d8e7ee" stroke="#141211" stroke-width="2" />
      <rect x="134" y="186" width="11" height="15" fill="#d8e7ee" stroke="#141211" stroke-width="2" />
      <rect x="2" y="210" width="11" height="15" fill="#d8e7ee" stroke="#141211" stroke-width="2" />
      <rect x="24" y="210" width="11" height="15" fill="#d8e7ee" stroke="#141211" stroke-width="2" />
      <rect x="46" y="210" width="11" height="15" fill="#d8e7ee" stroke="#141211" stroke-width="2" />
      <rect x="68" y="210" width="11" height="15" fill="#d8e7ee" stroke="#141211" stroke-width="2" />
      <rect x="90" y="210" width="11" height="15" fill="#d8e7ee" stroke="#141211" stroke-width="2" />
      <rect x="112" y="210" width="11" height="15" fill="#d8e7ee" stroke="#141211" stroke-width="2" />
      <rect x="134" y="210" width="11" height="15" fill="#d8e7ee" stroke="#141211" stroke-width="2" />
      <rect x="2" y="234" width="11" height="15" fill="#d8e7ee" stroke="#141211" stroke-width="2" />
      <rect x="24" y="234" width="11" height="15" fill="#d8e7ee" stroke="#141211" stroke-width="2" />
      <rect x="46" y="234" width="11" height="15" fill="#d8e7ee" stroke="#141211" stroke-width="2" />
      <rect x="68" y="234" width="11" height="15" fill="#d8e7ee" stroke="#141211" stroke-width="2" />
      <rect x="90" y="234" width="11" height="15" fill="#d8e7ee" stroke="#141211" stroke-width="2" />
      <rect x="112" y="234" width="11" height="15" fill="#d8e7ee" stroke="#141211" stroke-width="2" />
      <rect x="134" y="234" width="11" height="15" fill="#d8e7ee" stroke="#141211" stroke-width="2" />
      <rect x="2" y="258" width="11" height="15" fill="#d8e7ee" stroke="#141211" stroke-width="2" />
      <rect x="24" y="258" width="11" height="15" fill="#d8e7ee" stroke="#141211" stroke-width="2" />
      <rect x="46" y="258" width="11" height="15" fill="#d8e7ee" stroke="#141211" stroke-width="2" />
      <rect x="68" y="258" width="11" height="15" fill="#d8e7ee" stroke="#141211" stroke-width="2" />
      <rect x="90" y="258" width="11" height="15" fill="#d8e7ee" stroke="#141211" stroke-width="2" />
      <rect x="112" y="258" width="11" height="15" fill="#d8e7ee" stroke="#141211" stroke-width="2" />
      <rect x="134" y="258" width="11" height="15" fill="#d8e7ee" stroke="#141211" stroke-width="2" />
      <rect x="2" y="282" width="11" height="15" fill="#d8e7ee" stroke="#141211" stroke-width="2" />
      <rect x="24" y="282" width="11" height="15" fill="#d8e7ee" stroke="#141211" stroke-width="2" />
      <rect x="46" y="282" width="11" height="15" fill="#d8e7ee" stroke="#141211" stroke-width="2" />
      <rect x="68" y="282" width="11" height="15" fill="#d8e7ee" stroke="#141211" stroke-width="2" />
      <rect x="90" y="282" width="11" height="15" fill="#d8e7ee" stroke="#141211" stroke-width="2" />
      <rect x="112" y="282" width="11" height="15" fill="#d8e7ee" stroke="#141211" stroke-width="2" />
      <rect x="134" y="282" width="11" height="15" fill="#d8e7ee" stroke="#141211" stroke-width="2" />
      <rect x="2" y="306" width="11" height="15" fill="#d8e7ee" stroke="#141211" stroke-width="2" />
      <rect x="24" y="306" width="11" height="15" fill="#d8e7ee" stroke="#141211" stroke-width="2" />
      <rect x="46" y="306" width="11" height="15" fill="#d8e7ee" stroke="#141211" stroke-width="2" />
      <rect x="68" y="306" width="11" height="15" fill="#d8e7ee" stroke="#141211" stroke-width="2" />
      <rect x="90" y="306" width="11" height="15" fill="#d8e7ee" stroke="#141211" stroke-width="2" />
      <rect x="112" y="306" width="11" height="15" fill="#d8e7ee" stroke="#141211" stroke-width="2" />
      <rect x="134" y="306" width="11" height="15" fill="#d8e7ee" stroke="#141211" stroke-width="2" />
      <rect x="2" y="330" width="11" height="15" fill="#d8e7ee" stroke="#141211" stroke-width="2" />
      <rect x="24" y="330" width="11" height="15" fill="#d8e7ee" stroke="#141211" stroke-width="2" />
      <rect x="46" y="330" width="11" height="15" fill="#d8e7ee" stroke="#141211" stroke-width="2" />
      <rect x="68" y="330" width="11" height="15" fill="#d8e7ee" stroke="#141211" stroke-width="2" />
      <rect x="90" y="330" width="11" height="15" fill="#d8e7ee" stroke="#141211" stroke-width="2" />
      <rect x="112" y="330" width="11" height="15" fill="#d8e7ee" stroke="#141211" stroke-width="2" />
      <rect x="134" y="330" width="11" height="15" fill="#d8e7ee" stroke="#141211" stroke-width="2" />
      <rect x="2" y="354" width="11" height="15" fill="#d8e7ee" stroke="#141211" stroke-width="2" />
      <rect x="24" y="354" width="11" height="15" fill="#d8e7ee" stroke="#141211" stroke-width="2" />
      <rect x="46" y="354" width="11" height="15" fill="#d8e7ee" stroke="#141211" stroke-width="2" />
      <rect x="68" y="354" width="11" height="15" fill="#d8e7ee" stroke="#141211" stroke-width="2" />
      <rect x="90" y="354" width="11" height="15" fill="#d8e7ee" stroke="#141211" stroke-width="2" />
      <rect x="112" y="354" width="11" height="15" fill="#d8e7ee" stroke="#141211" stroke-width="2" />
      <rect x="134" y="354" width="11" height="15" fill="#d8e7ee" stroke="#141211" stroke-width="2" />
      <rect x="2" y="378" width="11" height="15" fill="#d8e7ee" stroke="#141211" stroke-width="2" />
      <rect x="24" y="378" width="11" height="15" fill="#d8e7ee" stroke="#141211" stroke-width="2" />
      <rect x="46" y="378" width="11" height="15" fill="#d8e7ee" stroke="#141211" stroke-width="2" />
      <rect x="68" y="378" width="11" height="15" fill="#d8e7ee" stroke="#141211" stroke-width="2" />
      <rect x="90" y="378" width="11" height="15" fill="#d8e7ee" stroke="#141211" stroke-width="2" />
      <rect x="112" y="378" width="11" height="15" fill="#d8e7ee" stroke="#141211" stroke-width="2" />
      <rect x="134" y="378" width="11" height="15" fill="#d8e7ee" stroke="#141211" stroke-width="2" />
      <rect x="2" y="402" width="11" height="15" fill="#d8e7ee" stroke="#141211" stroke-width="2" />
      <rect x="24" y="402" width="11" height="15" fill="#d8e7ee" stroke="#141211" stroke-width="2" />
      <rect x="46" y="402" width="11" height="15" fill="#d8e7ee" stroke="#141211" stroke-width="2" />
      <rect x="68" y="402" width="11" height="15" fill="#d8e7ee" stroke="#141211" stroke-width="2" />
      <rect x="90" y="402" width="11" height="15" fill="#d8e7ee" stroke="#141211" stroke-width="2" />
      <rect x="112" y="402" width="11" height="15" fill="#d8e7ee" stroke="#141211" stroke-width="2" />
      <rect x="134" y="402" width="11" height="15" fill="#d8e7ee" stroke="#141211" stroke-width="2" />
      <rect x="2" y="426" width="11" height="15" fill="#d8e7ee" stroke="#141211" stroke-width="2" />
      <rect x="24" y="426" width="11" height="15" fill="#d8e7ee" stroke="#141211" stroke-width="2" />
      <rect x="46" y="426" width="11" height="15" fill="#d8e7ee" stroke="#141211" stroke-width="2" />
      <rect x="68" y="426" width="11" height="15" fill="#d8e7ee" stroke="#141211" stroke-width="2" />
      <rect x="90" y="426" width="11" height="15" fill="#d8e7ee" stroke="#141211" stroke-width="2" />
      <rect x="112" y="426" width="11" height="15" fill="#d8e7ee" stroke="#141211" stroke-width="2" />
      <rect x="134" y="426" width="11" height="15" fill="#d8e7ee" stroke="#141211" stroke-width="2" />
      <rect x="2" y="450" width="11" height="15" fill="#d8e7ee" stroke="#141211" stroke-width="2" />
      <rect x="24" y="450" width="11" height="15" fill="#d8e7ee" stroke="#141211" stroke-width="2" />
      <rect x="46" y="450" width="11" height="15" fill="#d8e7ee" stroke="#141211" stroke-width="2" />
      <rect x="68" y="450" width="11" height="15" fill="#d8e7ee" stroke="#141211" stroke-width="2" />
      <rect x="90" y="450" width="11" height="15" fill="#d8e7ee" stroke="#141211" stroke-width="2" />
      <rect x="112" y="450" width="11" height="15" fill="#d8e7ee" stroke="#141211" stroke-width="2" />
      <rect x="134" y="450" width="11" height="15" fill="#d8e7ee" stroke="#141211" stroke-width="2" />
      <rect x="490" y="200" width="160" height="280" rx="0" fill="#bdb5c7" stroke="#141211" stroke-width="4" />
      <rect x="502" y="216" width="11" height="15" fill="#d8e7ee" stroke="#141211" stroke-width="2" />
      <rect x="524" y="216" width="11" height="15" fill="#d8e7ee" stroke="#141211" stroke-width="2" />
      <rect x="546" y="216" width="11" height="15" fill="#d8e7ee" stroke="#141211" stroke-width="2" />
      <rect x="568" y="216" width="11" height="15" fill="#d8e7ee" stroke="#141211" stroke-width="2" />
      <rect x="590" y="216" width="11" height="15" fill="#d8e7ee" stroke="#141211" stroke-width="2" />
      <rect x="612" y="216" width="11" height="15" fill="#d8e7ee" stroke="#141211" stroke-width="2" />
      <rect x="502" y="240" width="11" height="15" fill="#d8e7ee" stroke="#141211" stroke-width="2" />
      <rect x="524" y="240" width="11" height="15" fill="#d8e7ee" stroke="#141211" stroke-width="2" />
      <rect x="546" y="240" width="11" height="15" fill="#d8e7ee" stroke="#141211" stroke-width="2" />
      <rect x="568" y="240" width="11" height="15" fill="#d8e7ee" stroke="#141211" stroke-width="2" />
      <rect x="590" y="240" width="11" height="15" fill="#d8e7ee" stroke="#141211" stroke-width="2" />
      <rect x="612" y="240" width="11" height="15" fill="#d8e7ee" stroke="#141211" stroke-width="2" />
      <rect x="502" y="264" width="11" height="15" fill="#d8e7ee" stroke="#141211" stroke-width="2" />
      <rect x="524" y="264" width="11" height="15" fill="#d8e7ee" stroke="#141211" stroke-width="2" />
      <rect x="546" y="264" width="11" height="15" fill="#d8e7ee" stroke="#141211" stroke-width="2" />
      <rect x="568" y="264" width="11" height="15" fill="#d8e7ee" stroke="#141211" stroke-width="2" />
      <rect x="590" y="264" width="11" height="15" fill="#d8e7ee" stroke="#141211" stroke-width="2" />
      <rect x="612" y="264" width="11" height="15" fill="#d8e7ee" stroke="#141211" stroke-width="2" />
      <rect x="502" y="288" width="11" height="15" fill="#d8e7ee" stroke="#141211" stroke-width="2" />
      <rect x="524" y="288" width="11" height="15" fill="#d8e7ee" stroke="#141211" stroke-width="2" />
      <rect x="546" y="288" width="11" height="15" fill="#d8e7ee" stroke="#141211" stroke-width="2" />
      <rect x="568" y="288" width="11" height="15" fill="#d8e7ee" stroke="#141211" stroke-width="2" />
      <rect x="590" y="288" width="11" height="15" fill="#d8e7ee" stroke="#141211" stroke-width="2" />
      <rect x="612" y="288" width="11" height="15" fill="#d8e7ee" stroke="#141211" stroke-width="2" />
      <rect x="502" y="312" width="11" height="15" fill="#d8e7ee" stroke="#141211" stroke-width="2" />
      <rect x="524" y="312" width="11" height="15" fill="#d8e7ee" stroke="#141211" stroke-width="2" />
      <rect x="546" y="312" width="11" height="15" fill="#d8e7ee" stroke="#141211" stroke-width="2" />
      <rect x="568" y="312" width="11" height="15" fill="#d8e7ee" stroke="#141211" stroke-width="2" />
      <rect x="590" y="312" width="11" height="15" fill="#d8e7ee" stroke="#141211" stroke-width="2" />
      <rect x="612" y="312" width="11" height="15" fill="#d8e7ee" stroke="#141211" stroke-width="2" />
      <rect x="502" y="336" width="11" height="15" fill="#d8e7ee" stroke="#141211" stroke-width="2" />
      <rect x="524" y="336" width="11" height="15" fill="#d8e7ee" stroke="#141211" stroke-width="2" />
      <rect x="546" y="336" width="11" height="15" fill="#d8e7ee" stroke="#141211" stroke-width="2" />
      <rect x="568" y="336" width="11" height="15" fill="#d8e7ee" stroke="#141211" stroke-width="2" />
      <rect x="590" y="336" width="11" height="15" fill="#d8e7ee" stroke="#141211" stroke-width="2" />
      <rect x="612" y="336" width="11" height="15" fill="#d8e7ee" stroke="#141211" stroke-width="2" />
      <rect x="502" y="360" width="11" height="15" fill="#d8e7ee" stroke="#141211" stroke-width="2" />
      <rect x="524" y="360" width="11" height="15" fill="#d8e7ee" stroke="#141211" stroke-width="2" />
      <rect x="546" y="360" width="11" height="15" fill="#d8e7ee" stroke="#141211" stroke-width="2" />
      <rect x="568" y="360" width="11" height="15" fill="#d8e7ee" stroke="#141211" stroke-width="2" />
      <rect x="590" y="360" width="11" height="15" fill="#d8e7ee" stroke="#141211" stroke-width="2" />
      <rect x="612" y="360" width="11" height="15" fill="#d8e7ee" stroke="#141211" stroke-width="2" />
      <rect x="502" y="384" width="11" height="15" fill="#d8e7ee" stroke="#141211" stroke-width="2" />
      <rect x="524" y="384" width="11" height="15" fill="#d8e7ee" stroke="#141211" stroke-width="2" />
      <rect x="546" y="384" width="11" height="15" fill="#d8e7ee" stroke="#141211" stroke-width="2" />
      <rect x="568" y="384" width="11" height="15" fill="#d8e7ee" stroke="#141211" stroke-width="2" />
      <rect x="590" y="384" width="11" height="15" fill="#d8e7ee" stroke="#141211" stroke-width="2" />
      <rect x="612" y="384" width="11" height="15" fill="#d8e7ee" stroke="#141211" stroke-width="2" />
      <rect x="502" y="408" width="11" height="15" fill="#d8e7ee" stroke="#141211" stroke-width="2" />
      <rect x="524" y="408" width="11" height="15" fill="#d8e7ee" stroke="#141211" stroke-width="2" />
      <rect x="546" y="408" width="11" height="15" fill="#d8e7ee" stroke="#141211" stroke-width="2" />
      <rect x="568" y="408" width="11" height="15" fill="#d8e7ee" stroke="#141211" stroke-width="2" />
      <rect x="590" y="408" width="11" height="15" fill="#d8e7ee" stroke="#141211" stroke-width="2" />
      <rect x="612" y="408" width="11" height="15" fill="#d8e7ee" stroke="#141211" stroke-width="2" />
      <rect x="502" y="432" width="11" height="15" fill="#d8e7ee" stroke="#141211" stroke-width="2" />
      <rect x="524" y="432" width="11" height="15" fill="#d8e7ee" stroke="#141211" stroke-width="2" />
      <rect x="546" y="432" width="11" height="15" fill="#d8e7ee" stroke="#141211" stroke-width="2" />
      <rect x="568" y="432" width="11" height="15" fill="#d8e7ee" stroke="#141211" stroke-width="2" />
      <rect x="590" y="432" width="11" height="15" fill="#d8e7ee" stroke="#141211" stroke-width="2" />
      <rect x="612" y="432" width="11" height="15" fill="#d8e7ee" stroke="#141211" stroke-width="2" />
      <rect x="502" y="456" width="11" height="15" fill="#d8e7ee" stroke="#141211" stroke-width="2" />
      <rect x="524" y="456" width="11" height="15" fill="#d8e7ee" stroke="#141211" stroke-width="2" />
      <rect x="546" y="456" width="11" height="15" fill="#d8e7ee" stroke="#141211" stroke-width="2" />
      <rect x="568" y="456" width="11" height="15" fill="#d8e7ee" stroke="#141211" stroke-width="2" />
      <rect x="590" y="456" width="11" height="15" fill="#d8e7ee" stroke="#141211" stroke-width="2" />
      <rect x="612" y="456" width="11" height="15" fill="#d8e7ee" stroke="#141211" stroke-width="2" />
      <rect x="-5" y="478" width="650" height="60" rx="0" fill="#c5c2bd" stroke="#141211" stroke-width="4" />
      <rect x="-5" y="538" width="650" height="200" rx="0" fill="#6a6a6e" stroke="#141211" stroke-width="4" />
      <rect x="10" y="590" width="70" height="10" rx="2" fill="#f2f0e3" stroke="#141211" stroke-width="2" />
      <rect x="130" y="590" width="70" height="10" rx="2" fill="#f2f0e3" stroke="#141211" stroke-width="2" />
      <rect x="250" y="590" width="70" height="10" rx="2" fill="#f2f0e3" stroke="#141211" stroke-width="2" />
      <rect x="370" y="590" width="70" height="10" rx="2" fill="#f2f0e3" stroke="#141211" stroke-width="2" />
      <rect x="490" y="590" width="70" height="10" rx="2" fill="#f2f0e3" stroke="#141211" stroke-width="2" />
      <rect x="610" y="590" width="70" height="10" rx="2" fill="#f2f0e3" stroke="#141211" stroke-width="2" />
      <rect x="120" y="456" width="400" height="24" rx="0" fill="#bab7b0" stroke="#141211" stroke-width="4" />
      <rect x="140" y="436" width="360" height="22" rx="0" fill="#bab7b0" stroke="#141211" stroke-width="4" />
      <rect x="160" y="256" width="320" height="180" rx="0" fill="#e2ddd1" stroke="#141211" stroke-width="5" />
      <polygon points="138,256 320,150 502,256" fill="#e2ddd1" stroke="#141211" stroke-width="5" />
      <circle cx="320" cy="218" r="24" fill="#e3d3a5" stroke="#141211" stroke-width="4" />
      <rect x="200" y="266" width="240" height="34" rx="3" fill="#323a4b" stroke="#141211" stroke-width="4" />
      <g fill="#efeae0" aria-label="FIRST CITY BANK">
        <path d="M201 1493H1059V1323H403V883H995V713H403V0H201Z" transform="translate(235.6494140625 290.0) scale(0.009765625 -0.009765625)" />
        <path d="M201 1493H403V0H201Z" transform="translate(247.1533203125 290.0) scale(0.009765625 -0.009765625)" />
        <path d="M909 700Q974 678 1035.5 606.0Q1097 534 1159 408L1364 0H1147L956 383Q882 533 812.5 582.0Q743 631 623 631H403V0H201V1493H657Q913 1493 1039.0 1386.0Q1165 1279 1165 1063Q1165 922 1099.5 829.0Q1034 736 909 700ZM403 1327V797H657Q803 797 877.5 864.5Q952 932 952 1063Q952 1194 877.5 1260.5Q803 1327 657 1327Z" transform="translate(253.0517578125 290.0) scale(0.009765625 -0.009765625)" />
        <path d="M1096 1444V1247Q981 1302 879.0 1329.0Q777 1356 682 1356Q517 1356 427.5 1292.0Q338 1228 338 1110Q338 1011 397.5 960.5Q457 910 623 879L745 854Q971 811 1078.5 702.5Q1186 594 1186 412Q1186 195 1040.5 83.0Q895 -29 614 -29Q508 -29 388.5 -5.0Q269 19 141 66V274Q264 205 382.0 170.0Q500 135 614 135Q787 135 881.0 203.0Q975 271 975 397Q975 507 907.5 569.0Q840 631 686 662L563 686Q337 731 236.0 827.0Q135 923 135 1094Q135 1292 274.5 1406.0Q414 1520 659 1520Q764 1520 873.0 1501.0Q982 1482 1096 1444Z" transform="translate(266.9482421875 290.0) scale(0.009765625 -0.009765625)" />
        <path d="M-6 1493H1257V1323H727V0H524V1323H-6Z" transform="translate(279.6435546875 290.0) scale(0.009765625 -0.009765625)" />
        <path d="" transform="translate(291.8603515625 290.0) scale(0.009765625 -0.009765625)" />
        <path d="M1319 1378V1165Q1217 1260 1101.5 1307.0Q986 1354 856 1354Q600 1354 464.0 1197.5Q328 1041 328 745Q328 450 464.0 293.5Q600 137 856 137Q986 137 1101.5 184.0Q1217 231 1319 326V115Q1213 43 1094.5 7.0Q976 -29 844 -29Q505 -29 310.0 178.5Q115 386 115 745Q115 1105 310.0 1312.5Q505 1520 844 1520Q978 1520 1096.5 1484.5Q1215 1449 1319 1378Z" transform="translate(298.2177734375 290.0) scale(0.009765625 -0.009765625)" />
        <path d="M201 1493H403V0H201Z" transform="translate(312.1826171875 290.0) scale(0.009765625 -0.009765625)" />
        <path d="M-6 1493H1257V1323H727V0H524V1323H-6Z" transform="translate(318.0810546875 290.0) scale(0.009765625 -0.009765625)" />
        <path d="M-4 1493H213L627 879L1038 1493H1255L727 711V0H524V711Z" transform="translate(330.2978515625 290.0) scale(0.009765625 -0.009765625)" />
        <path d="" transform="translate(342.5146484375 290.0) scale(0.009765625 -0.009765625)" />
        <path d="M403 713V166H727Q890 166 968.5 233.5Q1047 301 1047 440Q1047 580 968.5 646.5Q890 713 727 713ZM403 1327V877H702Q850 877 922.5 932.5Q995 988 995 1102Q995 1215 922.5 1271.0Q850 1327 702 1327ZM201 1493H717Q948 1493 1073.0 1397.0Q1198 1301 1198 1124Q1198 987 1134.0 906.0Q1070 825 946 805Q1095 773 1177.5 671.5Q1260 570 1260 418Q1260 218 1124.0 109.0Q988 0 737 0H201Z" transform="translate(348.8720703125 290.0) scale(0.009765625 -0.009765625)" />
        <path d="M700 1294 426 551H975ZM586 1493H815L1384 0H1174L1038 383H365L229 0H16Z" transform="translate(362.5927734375 290.0) scale(0.009765625 -0.009765625)" />
        <path d="M201 1493H473L1135 244V1493H1331V0H1059L397 1249V0H201Z" transform="translate(376.2744140625 290.0) scale(0.009765625 -0.009765625)" />
        <path d="M201 1493H403V862L1073 1493H1333L592 797L1386 0H1120L403 719V0H201Z" transform="translate(391.2353515625 290.0) scale(0.009765625 -0.009765625)" />
      </g>
      <rect x="176" y="306" width="24" height="130" rx="4" fill="#f3efe7" stroke="#141211" stroke-width="4" />
      <rect x="226" y="306" width="24" height="130" rx="4" fill="#f3efe7" stroke="#141211" stroke-width="4" />
      <rect x="276" y="306" width="24" height="130" rx="4" fill="#f3efe7" stroke="#141211" stroke-width="4" />
      <rect x="326" y="306" width="24" height="130" rx="4" fill="#f3efe7" stroke="#141211" stroke-width="4" />
      <rect x="376" y="306" width="24" height="130" rx="4" fill="#f3efe7" stroke="#141211" stroke-width="4" />
      <rect x="426" y="306" width="24" height="130" rx="4" fill="#f3efe7" stroke="#141211" stroke-width="4" />
      <rect x="292" y="364" width="56" height="72" rx="3" fill="#52473f" stroke="#141211" stroke-width="4" />
      <rect x="106" y="334" width="8" height="150" rx="2" fill="#4c4f55" stroke="#141211" stroke-width="4" />
      <path d="M 110 334 Q 110 314 132 316" fill="none" stroke="#141211" stroke-width="10" />
      <path d="M 110 334 Q 110 314 132 316" fill="none" stroke="#4c4f55" stroke-width="5" />
      <ellipse cx="134" cy="320" rx="13" ry="7" fill="#e5e1d0" stroke="#141211" stroke-width="3" />
      <rect x="556" y="334" width="8" height="150" rx="2" fill="#4c4f55" stroke="#141211" stroke-width="4" />
      <path d="M 560 334 Q 560 314 582 316" fill="none" stroke="#141211" stroke-width="10" />
      <path d="M 560 334 Q 560 314 582 316" fill="none" stroke="#4c4f55" stroke-width="5" />
      <ellipse cx="584" cy="320" rx="13" ry="7" fill="#e5e1d0" stroke="#141211" stroke-width="3" />
    </g>
    <g id="layer_01" data-label="Bank entrance balcony" transform="translate(192.0 179.20000000000002) scale(1 1) translate(0 0)">
      <path d="M-105 65H75" stroke="#9fa29b" stroke-width="12" />
      <path d="M-105 65V18M75 65V18" stroke="#4a4c49" stroke-width="6" />
    </g>
    <g id="layer_02" data-label="citizen fleeing a" transform="translate(149.0 187.20000000000002) scale(0.55 0.55) translate(-80 -90)">
      <path d="M36,92 L18,126" fill="none" stroke="#141211" stroke-width="19.0" />
      <path d="M36,92 L18,126" fill="none" stroke="#39354d" stroke-width="13" />
      <path d="M18,126 L16,130" fill="none" stroke="#141211" stroke-width="19.0" />
      <path d="M18,126 L16,130" fill="none" stroke="#23252a" stroke-width="13" />
      <path d="M44,92 L68,116" fill="none" stroke="#141211" stroke-width="19.0" />
      <path d="M44,92 L68,116" fill="none" stroke="#39354d" stroke-width="13" />
      <path d="M68,116 L76,120" fill="none" stroke="#141211" stroke-width="19.0" />
      <path d="M68,116 L76,120" fill="none" stroke="#23252a" stroke-width="13" />
      <path d="M26,52 L8,74" fill="none" stroke="#141211" stroke-width="15.0" />
      <path d="M26,52 L8,74" fill="none" stroke="#a36156" stroke-width="9" />
      <path d="M54,52 L72,40" fill="none" stroke="#141211" stroke-width="15.0" />
      <path d="M54,52 L72,40" fill="none" stroke="#a36156" stroke-width="9" />
      <circle cx="8" cy="74" r="5.5" fill="#d4b8a2" stroke="#141211" stroke-width="3" />
      <circle cx="72" cy="40" r="5.5" fill="#d4b8a2" stroke="#141211" stroke-width="3" />
      <rect x="24" y="40" width="32" height="58" rx="14" fill="#a36156" stroke="#141211" stroke-width="4" />
      <circle cx="40" cy="22" r="17" fill="#d4b8a2" stroke="#141211" stroke-width="4" />
      <path d="M 23 20 A 17 17 0 0 1 57 20 L 50.54 13.5 Q 40 19.96 29.8 12.649999999999999 Z" fill="#251e19" stroke="#141211" stroke-width="3" />
      <circle cx="34" cy="24" r="4.6" fill="#fff" stroke="#141211" stroke-width="2" />
      <circle cx="46" cy="24" r="4.6" fill="#fff" stroke="#141211" stroke-width="2" />
      <circle cx="34" cy="24" r="1.8" fill="#141211" stroke="#141211" stroke-width="1" />
      <circle cx="46" cy="24" r="1.8" fill="#141211" stroke="#141211" stroke-width="1" />
      <ellipse cx="40" cy="34" rx="4.5" ry="6" fill="#141211" stroke="#141211" stroke-width="1" />
    </g>
    <g id="layer_03" data-label="citizen fleeing b" transform="translate(217.0 187.20000000000002) scale(0.55 0.55) translate(-80 -90)">
      <path d="M36,108 L18,126" fill="none" stroke="#141211" stroke-width="17.0" />
      <path d="M36,108 L18,126" fill="none" stroke="#d4b8a2" stroke-width="11" />
      <path d="M44,108 L68,116" fill="none" stroke="#141211" stroke-width="17.0" />
      <path d="M44,108 L68,116" fill="none" stroke="#d4b8a2" stroke-width="11" />
      <polygon points="26,64 54,64 68,118 12,118" fill="#5a8168" stroke="#141211" stroke-width="4" />
      <path d="M26,52 L8,74" fill="none" stroke="#141211" stroke-width="15.0" />
      <path d="M26,52 L8,74" fill="none" stroke="#5a8168" stroke-width="9" />
      <path d="M54,52 L72,40" fill="none" stroke="#141211" stroke-width="15.0" />
      <path d="M54,52 L72,40" fill="none" stroke="#5a8168" stroke-width="9" />
      <circle cx="8" cy="74" r="5.5" fill="#d4b8a2" stroke="#141211" stroke-width="3" />
      <circle cx="72" cy="40" r="5.5" fill="#d4b8a2" stroke="#141211" stroke-width="3" />
      <rect x="24" y="40" width="32" height="34" rx="12" fill="#5a8168" stroke="#141211" stroke-width="4" />
      <rect x="20" y="16" width="12" height="36" rx="6" fill="#583f2f" stroke="#141211" stroke-width="4" />
      <rect x="48" y="16" width="12" height="36" rx="6" fill="#583f2f" stroke="#141211" stroke-width="4" />
      <circle cx="40" cy="22" r="17" fill="#d4b8a2" stroke="#141211" stroke-width="4" />
      <path d="M 23 20 A 17 17 0 0 1 57 20 L 50.54 13.5 Q 40 19.96 29.8 12.649999999999999 Z" fill="#583f2f" stroke="#141211" stroke-width="3" />
      <circle cx="34" cy="24" r="4.6" fill="#fff" stroke="#141211" stroke-width="2" />
      <circle cx="46" cy="24" r="4.6" fill="#fff" stroke="#141211" stroke-width="2" />
      <circle cx="34" cy="24" r="1.8" fill="#141211" stroke="#141211" stroke-width="1" />
      <circle cx="46" cy="24" r="1.8" fill="#141211" stroke="#141211" stroke-width="1" />
      <ellipse cx="40" cy="34" rx="4.5" ry="6" fill="#141211" stroke="#141211" stroke-width="1" />
    </g>
    <g id="layer_04" data-label="Captain Halcyon" transform="translate(499.20000000000005 460.79999999999995) scale(-1.05 1.05) translate(-152 -36)">
      <polygon points="72,62 12,26 34,60 2,80 34,98 72,88" fill="#498381" stroke="#141211" stroke-width="4" />
      <path d="M70,60 L22,54" fill="none" stroke="#141211" stroke-width="22.0" />
      <path d="M70,60 L22,54" fill="none" stroke="#d1b771" stroke-width="16" />
      <path d="M70,86 L20,94" fill="none" stroke="#141211" stroke-width="22.0" />
      <path d="M70,86 L20,94" fill="none" stroke="#d1b771" stroke-width="16" />
      <path d="M22,54 L8,52" fill="none" stroke="#141211" stroke-width="24.0" />
      <path d="M22,54 L8,52" fill="none" stroke="#498381" stroke-width="18" />
      <path d="M20,94 L6,98" fill="none" stroke="#141211" stroke-width="24.0" />
      <path d="M20,94 L6,98" fill="none" stroke="#498381" stroke-width="18" />
      <rect x="58" y="44" width="76" height="52" rx="22" fill="#d1b771" stroke="#141211" stroke-width="4" />
      <g id="p4_emblem">
        <circle cx="98" cy="70" r="11" fill="#bc7655" stroke="#141211" stroke-width="4" />
        <line x1="112.0" y1="70.0" x2="118.0" y2="70.0" stroke="#141211" stroke-width="3" />
        <line x1="107.89949493661166" y1="79.89949493661166" x2="112.14213562373095" y2="84.14213562373095" stroke="#141211" stroke-width="3" />
        <line x1="98.0" y1="84.0" x2="98.0" y2="90.0" stroke="#141211" stroke-width="3" />
        <line x1="88.10050506338834" y1="79.89949493661166" x2="83.85786437626905" y2="84.14213562373095" stroke="#141211" stroke-width="3" />
        <line x1="84.0" y1="70.0" x2="78.0" y2="70.0" stroke="#141211" stroke-width="3" />
        <line x1="88.10050506338834" y1="60.10050506338834" x2="83.85786437626905" y2="55.85786437626905" stroke="#141211" stroke-width="3" />
        <line x1="98.0" y1="56.0" x2="98.0" y2="50.0" stroke="#141211" stroke-width="3" />
        <line x1="107.89949493661166" y1="60.10050506338833" x2="112.14213562373095" y2="55.85786437626905" stroke="#141211" stroke-width="3" />
      </g>
      <path d="M124,58 L196,46" fill="none" stroke="#141211" stroke-width="20.0" />
      <path d="M124,58 L196,46" fill="none" stroke="#d1b771" stroke-width="14" />
      <circle cx="202" cy="45" r="10" fill="#498381" stroke="#141211" stroke-width="4" />
      <g id="p4_head">
        <circle cx="152" cy="36" r="24" fill="#d4b8a2" stroke="#141211" stroke-width="4" />
        <clipPath id="p4_chf">
          <circle cx="152" cy="36" r="24" />
        </clipPath>
        <g clip-path="url(#p4_chf)">
          <rect x="128" y="12" width="48" height="18.0" fill="#251e19" />
          <rect x="128" y="31.68" width="48" height="12.0" fill="#f4f1eb" />
        </g>
        <circle cx="152" cy="36" r="24" fill="none" stroke="#141211" stroke-width="4" />
        <rect x="155.6" y="35.52" width="10.8" height="4.32" fill="#141211" />
      </g>
    </g>
  </g>
</svg>
